<?xml version="1.0" encoding="UTF-8" standalone="no"?>
<!-- Created with Inkscape (http://www.inkscape.org/) -->

<svg
   width="590mm"
   height="400mm"
   viewBox="0 0 590 400"
   version="1.1"
   id="svg5"
   xml:space="preserve"
   inkscape:version="1.2 (dc2aedaf03, 2022-05-15)"
   sodipodi:docname="BaseplateSIMMO_v2.svg"
   xmlns:inkscape="http://www.inkscape.org/namespaces/inkscape"
   xmlns:sodipodi="http://sodipodi.sourceforge.net/DTD/sodipodi-0.dtd"
   xmlns="http://www.w3.org/2000/svg"
   xmlns:svg="http://www.w3.org/2000/svg"><sodipodi:namedview
     id="namedview7"
     pagecolor="#ffffff"
     bordercolor="#666666"
     borderopacity="1.0"
     inkscape:showpageshadow="2"
     inkscape:pageopacity="0.0"
     inkscape:pagecheckerboard="0"
     inkscape:deskcolor="#d1d1d1"
     inkscape:document-units="mm"
     showgrid="false"
     inkscape:zoom="0.44542649"
     inkscape:cx="1408.7622"
     inkscape:cy="856.48252"
     inkscape:window-width="2560"
     inkscape:window-height="1372"
     inkscape:window-x="1912"
     inkscape:window-y="-8"
     inkscape:window-maximized="1"
     inkscape:current-layer="g397" /><defs
     id="defs2"><marker
       id="DistanceX"
       orient="auto"
       refX="0.0"
       refY="0.0"
       style="overflow:visible"><path
         d="M 3,-3 L -3,3 M 0,-5 L  0,5"
         style="stroke:#000000; stroke-width:0.5"
         id="path134" /></marker><pattern
       id="Hatch"
       patternUnits="userSpaceOnUse"
       width="8"
       height="8"
       x="0"
       y="0"><path
         d="M8 4 l-4,4"
         stroke="#000000"
         stroke-width="0.25"
         linecap="square"
         id="path137" /><path
         d="M6 2 l-4,4"
         stroke="#000000"
         stroke-width="0.25"
         linecap="square"
         id="path139" /><path
         d="M4 0 l-4,4"
         stroke="#000000"
         stroke-width="0.25"
         linecap="square"
         id="path141" /></pattern><symbol
       id="*Model_Space" /><symbol
       id="*Paper_Space" /><symbol
       id="*Paper_Space0" /></defs><g
     inkscape:label="Ebene 1"
     inkscape:groupmode="layer"
     id="layer1"><g
       inkscape:label="0"
       id="g397"
       transform="matrix(0,0.26458333,-0.26458333,0,268.13229,136.13229)"><path
         d="m -453.54331,933.54331 v 41.5748 H 0 v -41.5748 H 22.677165 V 895.74803 H 0 V 857.95276 H 22.677165 V 820.15748 H 0 V 782.36221 H 22.677165 V 744.56693 H 0 v -37.79528 h 22.677165 v -18.89763 l 25.122942,-18.25289 -13.329303,-18.34621 30.57702,-22.21551 13.329304,18.34621 30.577022,-22.2155 -13.329305,-18.34621 30.577015,-22.21551 13.32931,18.34621 30.57702,-22.2155 -13.32931,-18.34621 30.57702,-22.21551 13.32931,18.34621 30.57702,-22.2155 -13.3293,-18.34622 30.57702,-22.2155 13.3293,18.34621 30.57702,-22.21551 -13.3293,-18.34621 30.57702,-22.2155 13.3293,18.34621 30.57702,-22.21551 -13.3293,-18.34621 30.57702,-22.2155 13.3293,18.34621 30.57702,-22.21551 -13.3293,-18.34621 30.57702,-22.21551 13.3293,18.34622 30.57702,-22.21551 -13.3293,-18.34621 30.57702,-22.21551 13.3293,18.34622 30.57702,-22.21551 -13.3293,-18.34621 30.57702,-22.21551 13.3293,18.34621 30.57702,-22.2155 -13.3293,-18.34621 30.57702,-22.21551 13.3293,18.34621 30.57702,-22.2155 -13.3293,-18.34621 30.57702,-22.21551 13.3293,18.34621 30.57702,-22.2155 -13.3293,-18.34622 30.57702,-22.2155 13.3293,18.34621 30.57702,-22.2155 -13.3293,-18.34622 30.57702,-22.215502 13.3293,18.346212 4.15234,-3.01685 V 58.303253 H 793.70079 V 20.507978 h 22.67716 v -37.795276 h -22.67716 v -37.795275 h 22.67716 v -37.795276 h -22.67716 v -37.795271 h 22.67716 v -37.79528 h -22.67716 v -37.79528 h 22.67716 v -37.79527 h -22.67716 v -37.79528 h 22.67716 v -37.79527 h -22.67716 v -37.79528 h 22.67716 v -37.79527 h -22.67716 v -37.79528 h 22.67716 v -37.79527 h -22.67716 v -37.79528 h 22.67716 v -37.79528 h -22.67716 v -37.79527 h 22.67716 v -37.79528 h -22.67716 v -37.79527 h 22.67716 v -37.79528 h -22.67716 v -37.79527 h 22.67716 v -37.79528 h -22.67716 v -37.79527 h 22.67716 v -37.79528 h -22.67716 v -37.79528 h 22.67716 v -37.79527 h -22.67716 v -37.79528 h 22.67716 v -37.79527 h -22.67716 v -37.79524 h 22.67716 v -22.6772 h -91.85141 v 22.6772 h -37.79527 v -22.6772 h -37.79528 v 22.6772 h -37.79528 v -22.6772 h -37.79527 v 22.6772 h -37.79528 v -22.6772 h -37.79527 v 22.6772 h -37.79528 v -22.6772 h -37.79527 v 22.6772 h -37.79528 v -22.6772 h -37.79527 v 22.6772 h -37.79528 v -22.6772 h -37.79528 v 22.6772 h -37.79527 v -22.6772 h -37.79528 v 22.6772 h -37.79527 v -22.6772 h -37.79528 v 22.6772 H 82.006857 v 20.904 h 22.677163 v 37.79524 H 82.006857 v 37.79528 h 22.677163 v 37.79527 H 82.006857 v 37.79528 h 22.677163 v 37.79527 H 82.006857 l -51.676119,9.11189 3.937849,22.33265 -37.221081,6.56308 -3.937848,-22.33264 -37.22108,6.56308 3.937848,22.33264 -37.22108,6.56309 -3.937849,-22.33265 -37.221077,6.56308 3.93784,22.33265 -37.22107,6.56308 -3.93785,-22.33265 -37.22108,6.56308 3.93784,22.33265 -37.22108,6.56308 -3.93784,-22.33265 -37.22108,6.56308 3.93784,22.33265 -37.22108,6.56308 -3.93784,-22.33265 -37.22109,6.56308 3.93785,22.33265 -37.22108,6.56308 -3.93785,-22.33265 -37.22108,6.56308 3.93785,22.33265 -37.22108,6.56308 -3.93785,-22.33264 -22.67716,3.99859 v 75.59055 h 22.67716 v 37.79528 h -22.67716 v 37.79527 h 22.67716 v 37.79528 h -22.67716 v 37.79528 h 22.67716 v 37.79527 h -22.67716 v 37.79528 h 22.67716 v 37.79527 h -22.67716 v 37.79528 h 22.67716 v 37.79527 h -22.67716 v 37.79528 h 22.67716 v 37.79527 h -22.67716 v 37.79528 h 22.67716 v 37.79528 h -22.67716 v 37.79527 h 22.67716 v 37.795276 h -22.67716 v 37.795276 h 22.67716 v 37.795275 h -22.67716 v 37.795276 h 22.67716 v 37.795276 h -22.67716 v 37.795271 h 22.67716 v 37.79528 h -22.67716 v 37.79527 h 22.67716 v 37.79528 h -22.67716 v 37.79528 h 22.67716 v 37.79527 h -22.67716 v 37.79528 h 22.67716 v 37.79527 h -22.67716 v 37.79528 h 22.67716 v 37.79527 h -22.67716 V 480 h 22.67716 v 37.79528 h -22.67716 v 37.79527 h 22.67716 v 37.79528 h -22.67716 v 37.79527 h 22.67716 v 37.79528 h -22.67716 v 37.79527 h 22.67716 v 37.79528 h -22.67716 v 37.79528 h 22.67716 v 37.79527 h -22.67716 v 37.79528 h 22.67716 v 37.79527 h -22.67716 v 37.79528 z"
         style="fill:none;stroke:#000000;stroke-width:0.07559055;stroke-dasharray:none"
         id="path149" /><path
         d="m 595.14259,144.31597 a 6.047245,6.047245 0 0 0 -12.09449,0 6.047245,6.047245 0 0 0 12.09449,0 z"
         style="fill:none;stroke:#000000;stroke-width:0.07559055;stroke-dasharray:none"
         id="path151" /><path
         d="m 308.13745,262.52143 a 6.047245,6.047245 0 0 0 -12.09449,0 6.047245,6.047245 0 0 0 12.09449,0 z"
         style="fill:none;stroke:#000000;stroke-width:0.07559055;stroke-dasharray:none"
         id="path153" /><path
         d="m 563.20374,84.247726 a 6.047245,6.047245 0 0 0 -12.09449,0 6.047245,6.047245 0 0 0 12.09449,0 z"
         style="fill:none;stroke:#000000;stroke-width:0.07559055;stroke-dasharray:none"
         id="path155" /><path
         d="m 336.88881,324.1789 a 6.047245,6.047245 0 0 0 -12.09449,0 6.047245,6.047245 0 0 0 12.09449,0 z"
         style="fill:none;stroke:#000000;stroke-width:0.07559055;stroke-dasharray:none"
         id="path157" /><path
         d="m 99.014731,-960.16282 a 5.6692915,5.6692915 0 0 0 -11.338583,0 5.6692915,5.6692915 0 0 0 11.338583,0 z"
         style="fill:none;stroke:#000000;stroke-width:0.07559055;stroke-dasharray:none"
         id="path159" /><path
         d="m 31.516237,671.55578 a 5.6692915,5.6692915 0 0 0 -11.338583,0 5.6692915,5.6692915 0 0 0 11.338583,0 z"
         style="fill:none;stroke:#000000;stroke-width:0.07559055;stroke-dasharray:none"
         id="path161" /><path
         d="m 92.670277,627.12477 a 5.669291,5.669291 0 0 0 -11.338582,0 5.669291,5.669291 0 0 0 11.338582,0 z"
         style="fill:none;stroke:#000000;stroke-width:0.07559055;stroke-dasharray:none"
         id="path163" /><path
         d="m 153.82432,582.69375 a 5.669295,5.669295 0 0 0 -11.33859,0 5.669295,5.669295 0 0 0 11.33859,0 z"
         style="fill:none;stroke:#000000;stroke-width:0.07559055;stroke-dasharray:none"
         id="path165" /><path
         d="m 214.97836,538.26274 a 5.669291,5.669291 0 0 0 -11.33858,0 5.669291,5.669291 0 0 0 11.33858,0 z"
         style="fill:none;stroke:#000000;stroke-width:0.07559055;stroke-dasharray:none"
         id="path167" /><path
         d="m 276.1324,493.83173 a 5.6692915,5.6692915 0 0 0 -11.33858,0 5.6692915,5.6692915 0 0 0 11.33858,0 z"
         style="fill:none;stroke:#000000;stroke-width:0.07559055;stroke-dasharray:none"
         id="path169" /><path
         d="m 337.28644,449.40072 a 5.6692915,5.6692915 0 0 0 -11.33858,0 5.6692915,5.6692915 0 0 0 11.33858,0 z"
         style="fill:none;stroke:#000000;stroke-width:0.07559055;stroke-dasharray:none"
         id="path171" /><path
         d="m 398.44048,404.96971 a 5.6692915,5.6692915 0 0 0 -11.33858,0 5.6692915,5.6692915 0 0 0 11.33858,0 z"
         style="fill:none;stroke:#000000;stroke-width:0.07559055;stroke-dasharray:none"
         id="path173" /><path
         d="m 459.59452,360.5387 a 5.6692915,5.6692915 0 0 0 -11.33858,0 5.6692915,5.6692915 0 0 0 11.33858,0 z"
         style="fill:none;stroke:#000000;stroke-width:0.07559055;stroke-dasharray:none"
         id="path175" /><path
         d="m 520.74856,316.10769 a 5.6692915,5.6692915 0 0 0 -11.33858,0 5.6692915,5.6692915 0 0 0 11.33858,0 z"
         style="fill:none;stroke:#000000;stroke-width:0.07559055;stroke-dasharray:none"
         id="path177" /><path
         d="m 581.9026,271.67668 a 5.6692915,5.6692915 0 0 0 -11.33858,0 5.6692915,5.6692915 0 0 0 11.33858,0 z"
         style="fill:none;stroke:#000000;stroke-width:0.07559055;stroke-dasharray:none"
         id="path179" /><path
         d="m 643.05664,227.24566 a 5.6692915,5.6692915 0 0 0 -11.33858,0 5.6692915,5.6692915 0 0 0 11.33858,0 z"
         style="fill:none;stroke:#000000;stroke-width:0.07559055;stroke-dasharray:none"
         id="path181" /><path
         d="m 704.21068,182.81465 a 5.6692915,5.6692915 0 0 0 -11.33858,0 5.6692915,5.6692915 0 0 0 11.33858,0 z"
         style="fill:none;stroke:#000000;stroke-width:0.07559055;stroke-dasharray:none"
         id="path183" /><path
         d="m 765.36472,138.38364 a 5.6692915,5.6692915 0 0 0 -11.33858,0 5.6692915,5.6692915 0 0 0 11.33858,0 z"
         style="fill:none;stroke:#000000;stroke-width:0.07559055;stroke-dasharray:none"
         id="path185" /><path
         d="m 810.70866,77.200891 a 5.669291,5.669291 0 0 0 -11.33858,0 5.669291,5.669291 0 0 0 11.33858,0 z"
         style="fill:none;stroke:#000000;stroke-width:0.07559055;stroke-dasharray:none"
         id="path187" /><path
         d="m 810.70866,1.61034 a 5.669291,5.669291 0 0 0 -11.33858,0 5.669291,5.669291 0 0 0 11.33858,0 z"
         style="fill:none;stroke:#000000;stroke-width:0.07559055;stroke-dasharray:none"
         id="path189" /><path
         d="m 810.70866,-73.980211 a 5.669291,5.669291 0 0 0 -11.33858,0 5.669291,5.669291 0 0 0 11.33858,0 z"
         style="fill:none;stroke:#000000;stroke-width:0.07559055;stroke-dasharray:none"
         id="path191" /><path
         d="m 810.70866,-149.57076 a 5.669291,5.669291 0 0 0 -11.33858,0 5.669291,5.669291 0 0 0 11.33858,0 z"
         style="fill:none;stroke:#000000;stroke-width:0.07559055;stroke-dasharray:none"
         id="path193" /><path
         d="m 810.70866,-225.16131 a 5.669291,5.669291 0 0 0 -11.33858,0 5.669291,5.669291 0 0 0 11.33858,0 z"
         style="fill:none;stroke:#000000;stroke-width:0.07559055;stroke-dasharray:none"
         id="path195" /><path
         d="m 810.70866,-300.75186 a 5.669291,5.669291 0 0 0 -11.33858,0 5.669291,5.669291 0 0 0 11.33858,0 z"
         style="fill:none;stroke:#000000;stroke-width:0.07559055;stroke-dasharray:none"
         id="path197" /><path
         d="m 810.70866,-376.34242 a 5.669291,5.669291 0 0 0 -11.33858,0 5.669291,5.669291 0 0 0 11.33858,0 z"
         style="fill:none;stroke:#000000;stroke-width:0.07559055;stroke-dasharray:none"
         id="path199" /><path
         d="m 810.70866,-451.93297 a 5.669291,5.669291 0 0 0 -11.33858,0 5.669291,5.669291 0 0 0 11.33858,0 z"
         style="fill:none;stroke:#000000;stroke-width:0.07559055;stroke-dasharray:none"
         id="path201" /><path
         d="m 810.70866,-527.52352 a 5.669291,5.669291 0 0 0 -11.33858,0 5.669291,5.669291 0 0 0 11.33858,0 z"
         style="fill:none;stroke:#000000;stroke-width:0.07559055;stroke-dasharray:none"
         id="path203" /><path
         d="m 810.70866,-603.11407 a 5.669291,5.669291 0 0 0 -11.33858,0 5.669291,5.669291 0 0 0 11.33858,0 z"
         style="fill:none;stroke:#000000;stroke-width:0.07559055;stroke-dasharray:none"
         id="path205" /><path
         d="m 810.70866,-678.70462 a 5.669291,5.669291 0 0 0 -11.33858,0 5.669291,5.669291 0 0 0 11.33858,0 z"
         style="fill:none;stroke:#000000;stroke-width:0.07559055;stroke-dasharray:none"
         id="path207" /><path
         d="m 810.70866,-754.29517 a 5.669291,5.669291 0 0 0 -11.33858,0 5.669291,5.669291 0 0 0 11.33858,0 z"
         style="fill:none;stroke:#000000;stroke-width:0.07559055;stroke-dasharray:none"
         id="path209" /><path
         d="m 810.70866,-829.88572 a 5.669291,5.669291 0 0 0 -11.33858,0 5.669291,5.669291 0 0 0 11.33858,0 z"
         style="fill:none;stroke:#000000;stroke-width:0.07559055;stroke-dasharray:none"
         id="path211" /><path
         d="m 810.70866,-905.47627 a 5.669291,5.669291 0 0 0 -11.33858,0 5.669291,5.669291 0 0 0 11.33858,0 z"
         style="fill:none;stroke:#000000;stroke-width:0.07559055;stroke-dasharray:none"
         id="path213" /><path
         d="m 749.09347,-1049.0983 a 5.6692915,5.6692915 0 0 0 -11.33858,0 5.6692915,5.6692915 0 0 0 11.33858,0 z"
         style="fill:none;stroke:#000000;stroke-width:0.07559055;stroke-dasharray:none"
         id="path215" /><path
         d="m 673.50292,-1049.0983 a 5.6692915,5.6692915 0 0 0 -11.33858,0 5.6692915,5.6692915 0 0 0 11.33858,0 z"
         style="fill:none;stroke:#000000;stroke-width:0.07559055;stroke-dasharray:none"
         id="path217" /><path
         d="m 597.91237,-1049.0983 a 5.669291,5.669291 0 0 0 -11.33858,0 5.669291,5.669291 0 0 0 11.33858,0 z"
         style="fill:none;stroke:#000000;stroke-width:0.07559055;stroke-dasharray:none"
         id="path219" /><path
         d="m 522.32182,-1049.0983 a 5.669295,5.669295 0 0 0 -11.33859,0 5.669295,5.669295 0 0 0 11.33859,0 z"
         style="fill:none;stroke:#000000;stroke-width:0.07559055;stroke-dasharray:none"
         id="path221" /><path
         d="m 446.73127,-1049.0983 a 5.669295,5.669295 0 0 0 -11.33859,0 5.669295,5.669295 0 0 0 11.33859,0 z"
         style="fill:none;stroke:#000000;stroke-width:0.07559055;stroke-dasharray:none"
         id="path223" /><path
         d="m 371.14071,-1049.0983 a 5.6692915,5.6692915 0 0 0 -11.33858,0 5.6692915,5.6692915 0 0 0 11.33858,0 z"
         style="fill:none;stroke:#000000;stroke-width:0.07559055;stroke-dasharray:none"
         id="path225" /><path
         d="m 295.55016,-1049.0983 a 5.6692915,5.6692915 0 0 0 -11.33858,0 5.6692915,5.6692915 0 0 0 11.33858,0 z"
         style="fill:none;stroke:#000000;stroke-width:0.07559055;stroke-dasharray:none"
         id="path227" /><path
         d="m 219.95961,-1049.0983 a 5.6692915,5.6692915 0 0 0 -11.33858,0 5.6692915,5.6692915 0 0 0 11.33858,0 z"
         style="fill:none;stroke:#000000;stroke-width:0.07559055;stroke-dasharray:none"
         id="path229" /><path
         d="m 144.36906,-1049.0983 a 5.669291,5.669291 0 0 0 -11.33858,0 5.669291,5.669291 0 0 0 11.33858,0 z"
         style="fill:none;stroke:#000000;stroke-width:0.07559055;stroke-dasharray:none"
         id="path231" /><path
         d="m -459.2126,914.64567 a 5.6692915,5.6692915 0 0 0 -11.33858,0 5.6692915,5.6692915 0 0 0 11.33858,0 z"
         style="fill:none;stroke:#000000;stroke-width:0.07559055;stroke-dasharray:none"
         id="path233" /><path
         d="m -459.2126,839.05512 a 5.6692915,5.6692915 0 0 0 -11.33858,0 5.6692915,5.6692915 0 0 0 11.33858,0 z"
         style="fill:none;stroke:#000000;stroke-width:0.07559055;stroke-dasharray:none"
         id="path235" /><path
         d="m -459.2126,763.46457 a 5.6692915,5.6692915 0 0 0 -11.33858,0 5.6692915,5.6692915 0 0 0 11.33858,0 z"
         style="fill:none;stroke:#000000;stroke-width:0.07559055;stroke-dasharray:none"
         id="path237" /><path
         d="m -459.2126,687.87402 a 5.6692915,5.6692915 0 0 0 -11.33858,0 5.6692915,5.6692915 0 0 0 11.33858,0 z"
         style="fill:none;stroke:#000000;stroke-width:0.07559055;stroke-dasharray:none"
         id="path239" /><path
         d="m -459.2126,612.28346 a 5.6692915,5.6692915 0 0 0 -11.33858,0 5.6692915,5.6692915 0 0 0 11.33858,0 z"
         style="fill:none;stroke:#000000;stroke-width:0.07559055;stroke-dasharray:none"
         id="path241" /><path
         d="m -459.2126,536.69291 a 5.6692915,5.6692915 0 0 0 -11.33858,0 5.6692915,5.6692915 0 0 0 11.33858,0 z"
         style="fill:none;stroke:#000000;stroke-width:0.07559055;stroke-dasharray:none"
         id="path243" /><path
         d="m -459.2126,461.10236 a 5.6692915,5.6692915 0 0 0 -11.33858,0 5.6692915,5.6692915 0 0 0 11.33858,0 z"
         style="fill:none;stroke:#000000;stroke-width:0.07559055;stroke-dasharray:none"
         id="path245" /><path
         d="m -459.2126,385.51181 a 5.6692915,5.6692915 0 0 0 -11.33858,0 5.6692915,5.6692915 0 0 0 11.33858,0 z"
         style="fill:none;stroke:#000000;stroke-width:0.07559055;stroke-dasharray:none"
         id="path247" /><path
         d="m -459.2126,309.92126 a 5.6692915,5.6692915 0 0 0 -11.33858,0 5.6692915,5.6692915 0 0 0 11.33858,0 z"
         style="fill:none;stroke:#000000;stroke-width:0.07559055;stroke-dasharray:none"
         id="path249" /><path
         d="m -459.2126,234.33071 a 5.6692915,5.6692915 0 0 0 -11.33858,0 5.6692915,5.6692915 0 0 0 11.33858,0 z"
         style="fill:none;stroke:#000000;stroke-width:0.07559055;stroke-dasharray:none"
         id="path251" /><path
         d="m -459.2126,158.74016 a 5.6692915,5.6692915 0 0 0 -11.33858,0 5.6692915,5.6692915 0 0 0 11.33858,0 z"
         style="fill:none;stroke:#000000;stroke-width:0.07559055;stroke-dasharray:none"
         id="path253" /><path
         d="m -459.2126,83.149606 a 5.6692915,5.6692915 0 0 0 -11.33858,0 5.6692915,5.6692915 0 0 0 11.33858,0 z"
         style="fill:none;stroke:#000000;stroke-width:0.07559055;stroke-dasharray:none"
         id="path255" /><path
         d="m -459.2126,7.559055 a 5.6692915,5.6692915 0 0 0 -11.33858,0 5.6692915,5.6692915 0 0 0 11.33858,0 z"
         style="fill:none;stroke:#000000;stroke-width:0.07559055;stroke-dasharray:none"
         id="path257" /><path
         d="m -459.2126,-68.031496 a 5.6692915,5.6692915 0 0 0 -11.33858,0 5.6692915,5.6692915 0 0 0 11.33858,0 z"
         style="fill:none;stroke:#000000;stroke-width:0.07559055;stroke-dasharray:none"
         id="path259" /><path
         d="m -459.2126,-143.62205 a 5.6692915,5.6692915 0 0 0 -11.33858,0 5.6692915,5.6692915 0 0 0 11.33858,0 z"
         style="fill:none;stroke:#000000;stroke-width:0.07559055;stroke-dasharray:none"
         id="path261" /><path
         d="m -459.2126,-219.2126 a 5.6692915,5.6692915 0 0 0 -11.33858,0 5.6692915,5.6692915 0 0 0 11.33858,0 z"
         style="fill:none;stroke:#000000;stroke-width:0.07559055;stroke-dasharray:none"
         id="path263" /><path
         d="m -459.2126,-294.80315 a 5.6692915,5.6692915 0 0 0 -11.33858,0 5.6692915,5.6692915 0 0 0 11.33858,0 z"
         style="fill:none;stroke:#000000;stroke-width:0.07559055;stroke-dasharray:none"
         id="path265" /><path
         d="m -459.2126,-370.3937 a 5.6692915,5.6692915 0 0 0 -11.33858,0 5.6692915,5.6692915 0 0 0 11.33858,0 z"
         style="fill:none;stroke:#000000;stroke-width:0.07559055;stroke-dasharray:none"
         id="path267" /><path
         d="m -459.2126,-445.98425 a 5.6692915,5.6692915 0 0 0 -11.33858,0 5.6692915,5.6692915 0 0 0 11.33858,0 z"
         style="fill:none;stroke:#000000;stroke-width:0.07559055;stroke-dasharray:none"
         id="path269" /><path
         d="m -459.2126,-521.5748 a 5.6692915,5.6692915 0 0 0 -11.33858,0 5.6692915,5.6692915 0 0 0 11.33858,0 z"
         style="fill:none;stroke:#000000;stroke-width:0.07559055;stroke-dasharray:none"
         id="path271" /><path
         d="m -459.2126,-597.16535 a 5.6692915,5.6692915 0 0 0 -11.33858,0 5.6692915,5.6692915 0 0 0 11.33858,0 z"
         style="fill:none;stroke:#000000;stroke-width:0.07559055;stroke-dasharray:none"
         id="path273" /><path
         d="m -459.2126,-672.75591 a 5.6692915,5.6692915 0 0 0 -11.33858,0 5.6692915,5.6692915 0 0 0 11.33858,0 z"
         style="fill:none;stroke:#000000;stroke-width:0.07559055;stroke-dasharray:none"
         id="path275" /><path
         d="m -390.07347,-732.12571 a 5.6692915,5.6692915 0 0 0 -11.33858,0 5.6692915,5.6692915 0 0 0 11.33858,0 z"
         style="fill:none;stroke:#000000;stroke-width:0.07559055;stroke-dasharray:none"
         id="path277" /><path
         d="m -315.63131,-745.25187 a 5.6692915,5.6692915 0 0 0 -11.33858,0 5.6692915,5.6692915 0 0 0 11.33858,0 z"
         style="fill:none;stroke:#000000;stroke-width:0.07559055;stroke-dasharray:none"
         id="path279" /><path
         d="m -241.18915,-758.37803 a 5.6692915,5.6692915 0 0 0 -11.33858,0 5.6692915,5.6692915 0 0 0 11.33858,0 z"
         style="fill:none;stroke:#000000;stroke-width:0.07559055;stroke-dasharray:none"
         id="path281" /><path
         d="m -166.74699,-771.5042 a 5.6692915,5.6692915 0 0 0 -11.33858,0 5.6692915,5.6692915 0 0 0 11.33858,0 z"
         style="fill:none;stroke:#000000;stroke-width:0.07559055;stroke-dasharray:none"
         id="path283" /><path
         d="m -92.304827,-784.63036 a 5.6692915,5.6692915 0 0 0 -11.338583,0 5.6692915,5.6692915 0 0 0 11.338583,0 z"
         style="fill:none;stroke:#000000;stroke-width:0.07559055;stroke-dasharray:none"
         id="path285" /><path
         d="m -17.862667,-797.75652 a 5.669291,5.669291 0 0 0 -11.338582,0 5.669291,5.669291 0 0 0 11.338582,0 z"
         style="fill:none;stroke:#000000;stroke-width:0.07559055;stroke-dasharray:none"
         id="path287" /><path
         d="m 56.579494,-810.88268 a 5.669291,5.669291 0 0 0 -11.338582,0 5.669291,5.669291 0 0 0 11.338582,0 z"
         style="fill:none;stroke:#000000;stroke-width:0.07559055;stroke-dasharray:none"
         id="path289" /><path
         d="m 810.70866,-981.06682 a 5.669291,5.669291 0 0 0 -11.33858,0 5.669291,5.669291 0 0 0 11.33858,0 z"
         style="fill:none;stroke:#000000;stroke-width:0.07559055;stroke-dasharray:none"
         id="path291" /><path
         d="m 17.007874,914.64567 a 5.6692915,5.6692915 0 0 0 -11.338583,0 5.6692915,5.6692915 0 0 0 11.338583,0 z"
         style="fill:none;stroke:#000000;stroke-width:0.07559055;stroke-dasharray:none"
         id="path293" /><path
         d="m 17.007874,839.05512 a 5.6692915,5.6692915 0 0 0 -11.338583,0 5.6692915,5.6692915 0 0 0 11.338583,0 z"
         style="fill:none;stroke:#000000;stroke-width:0.07559055;stroke-dasharray:none"
         id="path295" /><path
         d="m 17.007874,763.46457 a 5.6692915,5.6692915 0 0 0 -11.338583,0 5.6692915,5.6692915 0 0 0 11.338583,0 z"
         style="fill:none;stroke:#000000;stroke-width:0.07559055;stroke-dasharray:none"
         id="path297" /><path
         d="m 17.007874,687.87402 a 5.6692915,5.6692915 0 0 0 -11.338583,0 5.6692915,5.6692915 0 0 0 11.338583,0 z"
         style="fill:none;stroke:#000000;stroke-width:0.07559055;stroke-dasharray:none"
         id="path299" /><path
         d="m -355.08781,-551.34794 a 7.7480315,7.7480315 0 0 0 -15.49606,0 7.7480315,7.7480315 0 0 0 15.49606,0 z"
         style="fill:none;stroke:#000000;stroke-width:0.07559055;stroke-dasharray:none"
         id="path301" /><path
         d="m -109.42868,-594.66428 a 7.7480315,7.7480315 0 0 0 -15.49606,0 7.7480315,7.7480315 0 0 0 15.49606,0 z"
         style="fill:none;stroke:#000000;stroke-width:0.07559055;stroke-dasharray:none"
         id="path303" /><path
         d="m 317.65197,78.952956 a 7.748035,7.748035 0 0 0 -15.49607,0 7.748035,7.748035 0 0 0 15.49607,0 z"
         style="fill:none;stroke:#000000;stroke-width:0.07559055;stroke-dasharray:none"
         id="path305" /><path
         d="m 50.372175,57.910848 a 7.7480315,7.7480315 0 0 0 -15.496063,0 7.7480315,7.7480315 0 0 0 15.496063,0 z"
         style="fill:none;stroke:#000000;stroke-width:0.07559055;stroke-dasharray:none"
         id="path307" /><path
         d="m 47.862968,-414.27784 a 7.7480315,7.7480315 0 0 0 -15.496063,0 7.7480315,7.7480315 0 0 0 15.496063,0 z"
         style="fill:none;stroke:#000000;stroke-width:0.07559055;stroke-dasharray:none"
         id="path309" /><path
         d="m 314.73482,-388.57427 a 7.748035,7.748035 0 0 0 -15.49607,0 7.748035,7.748035 0 0 0 15.49607,0 z"
         style="fill:none;stroke:#000000;stroke-width:0.07559055;stroke-dasharray:none"
         id="path311" /><path
         d="m 406.04176,-878.20431 a 7.7480315,7.7480315 0 0 0 -15.49606,0 7.7480315,7.7480315 0 0 0 15.49606,0 z"
         style="fill:none;stroke:#000000;stroke-width:0.07559055;stroke-dasharray:none"
         id="path313" /><path
         d="m 160.38263,-834.88798 a 7.7480315,7.7480315 0 0 0 -15.49606,0 7.7480315,7.7480315 0 0 0 15.49606,0 z"
         style="fill:none;stroke:#000000;stroke-width:0.07559055;stroke-dasharray:none"
         id="path315" /><path
         d="m 177.44664,-738.11317 a 7.7480315,7.7480315 0 0 0 -15.49606,0 7.7480315,7.7480315 0 0 0 15.49606,0 z"
         style="fill:none;stroke:#000000;stroke-width:0.07559055;stroke-dasharray:none"
         id="path317" /><path
         d="m 423.10577,-781.4295 a 7.7480315,7.7480315 0 0 0 -15.49606,0 7.7480315,7.7480315 0 0 0 15.49606,0 z"
         style="fill:none;stroke:#000000;stroke-width:0.07559055;stroke-dasharray:none"
         id="path319" /><path
         d="m 74.949221,-319.81685 a 7.7480315,7.7480315 0 0 0 -15.496063,0 7.7480315,7.7480315 0 0 0 15.496063,0 z"
         style="fill:none;stroke:#000000;stroke-width:0.07559055;stroke-dasharray:none"
         id="path321" /><path
         d="m 287.64856,-483.03526 a 7.7480315,7.7480315 0 0 0 -15.49606,0 7.7480315,7.7480315 0 0 0 15.49606,0 z"
         style="fill:none;stroke:#000000;stroke-width:0.07559055;stroke-dasharray:none"
         id="path323" /><path
         d="m 79.102875,151.88473 a 7.7480315,7.7480315 0 0 0 -15.496063,0 7.7480315,7.7480315 0 0 0 15.496063,0 z"
         style="fill:none;stroke:#000000;stroke-width:0.07559055;stroke-dasharray:none"
         id="path325" /><path
         d="m 288.92127,-15.020929 a 7.748035,7.748035 0 0 0 -15.49607,0 7.748035,7.748035 0 0 0 15.49607,0 z"
         style="fill:none;stroke:#000000;stroke-width:0.07559055;stroke-dasharray:none"
         id="path327" /><path
         d="m -92.364667,-497.88947 a 7.7480315,7.7480315 0 0 0 -15.496063,0 7.7480315,7.7480315 0 0 0 15.496063,0 z"
         style="fill:none;stroke:#000000;stroke-width:0.07559055;stroke-dasharray:none"
         id="path329" /><path
         d="m -338.0238,-454.57314 a 7.7480315,7.7480315 0 0 0 -15.49606,0 7.7480315,7.7480315 0 0 0 15.49606,0 z"
         style="fill:none;stroke:#000000;stroke-width:0.07559055;stroke-dasharray:none"
         id="path331" /><path
         d="m 99.014731,-884.57227 a 5.6692915,5.6692915 0 0 0 -11.338583,0 5.6692915,5.6692915 0 0 0 11.338583,0 z"
         style="fill:none;stroke:#000000;stroke-width:0.07559055;stroke-dasharray:none"
         id="path333" /><path
         d="m -217.13386,944.88189 a 9.6377955,9.6377955 0 0 0 -19.27559,0 9.6377955,9.6377955 0 0 0 19.27559,0 z"
         style="fill:none;stroke:#000000;stroke-width:0.07559055;stroke-dasharray:none"
         id="path335" /><path
         d="m -217.13386,850.3937 a 9.6377955,9.6377955 0 0 0 -19.27559,0 9.6377955,9.6377955 0 0 0 19.27559,0 z"
         style="fill:none;stroke:#000000;stroke-width:0.07559055;stroke-dasharray:none"
         id="path337" /><path
         d="m -217.13386,755.90551 a 9.6377955,9.6377955 0 0 0 -19.27559,0 9.6377955,9.6377955 0 0 0 19.27559,0 z"
         style="fill:none;stroke:#000000;stroke-width:0.07559055;stroke-dasharray:none"
         id="path339" /><path
         d="m -217.13386,661.41732 a 9.6377955,9.6377955 0 0 0 -19.27559,0 9.6377955,9.6377955 0 0 0 19.27559,0 z"
         style="fill:none;stroke:#000000;stroke-width:0.07559055;stroke-dasharray:none"
         id="path341" /><path
         d="m -217.13386,566.92913 a 9.6377955,9.6377955 0 0 0 -19.27559,0 9.6377955,9.6377955 0 0 0 19.27559,0 z"
         style="fill:none;stroke:#000000;stroke-width:0.07559055;stroke-dasharray:none"
         id="path343" /><path
         d="m -217.13386,472.44094 a 9.6377955,9.6377955 0 0 0 -19.27559,0 9.6377955,9.6377955 0 0 0 19.27559,0 z"
         style="fill:none;stroke:#000000;stroke-width:0.07559055;stroke-dasharray:none"
         id="path345" /><path
         d="m -217.13386,377.95276 a 9.6377955,9.6377955 0 0 0 -19.27559,0 9.6377955,9.6377955 0 0 0 19.27559,0 z"
         style="fill:none;stroke:#000000;stroke-width:0.07559055;stroke-dasharray:none"
         id="path347" /><path
         d="m -217.13386,283.46457 a 9.6377955,9.6377955 0 0 0 -19.27559,0 9.6377955,9.6377955 0 0 0 19.27559,0 z"
         style="fill:none;stroke:#000000;stroke-width:0.07559055;stroke-dasharray:none"
         id="path349" /><path
         d="m -217.13386,188.97638 a 9.6377955,9.6377955 0 0 0 -19.27559,0 9.6377955,9.6377955 0 0 0 19.27559,0 z"
         style="fill:none;stroke:#000000;stroke-width:0.07559055;stroke-dasharray:none"
         id="path351" /><path
         d="m -217.13386,94.488189 a 9.6377955,9.6377955 0 0 0 -19.27559,0 9.6377955,9.6377955 0 0 0 19.27559,0 z"
         style="fill:none;stroke:#000000;stroke-width:0.07559055;stroke-dasharray:none"
         id="path353" /><path
         d="m -217.13386,0 a 9.6377955,9.6377955 0 0 0 -19.27559,0 9.6377955,9.6377955 0 0 0 19.27559,0 z"
         style="fill:none;stroke:#000000;stroke-width:0.07559055;stroke-dasharray:none"
         id="path355" /><path
         d="m -217.13386,-94.488189 a 9.6377955,9.6377955 0 0 0 -19.27559,0 9.6377955,9.6377955 0 0 0 19.27559,0 z"
         style="fill:none;stroke:#000000;stroke-width:0.07559055;stroke-dasharray:none"
         id="path357" /><path
         d="m -217.13386,-188.97638 a 9.6377955,9.6377955 0 0 0 -19.27559,0 9.6377955,9.6377955 0 0 0 19.27559,0 z"
         style="fill:none;stroke:#000000;stroke-width:0.07559055;stroke-dasharray:none"
         id="path359" /><path
         d="m -217.13386,-283.46457 a 9.6377955,9.6377955 0 0 0 -19.27559,0 9.6377955,9.6377955 0 0 0 19.27559,0 z"
         style="fill:none;stroke:#000000;stroke-width:0.07559055;stroke-dasharray:none"
         id="path361" /><path
         d="m -217.13386,-377.95276 a 9.6377955,9.6377955 0 0 0 -19.27559,0 9.6377955,9.6377955 0 0 0 19.27559,0 z"
         style="fill:none;stroke:#000000;stroke-width:0.07559055;stroke-dasharray:none"
         id="path363" /><path
         d="m 446.70412,149.53806 a 9.6377955,9.6377955 0 0 0 -19.27559,0 9.6377955,9.6377955 0 0 0 19.27559,0 z"
         style="fill:none;stroke:#000000;stroke-width:0.07559055;stroke-dasharray:none"
         id="path365" /><path
         d="m 326.90682,-107.36808 a 9.637795,9.637795 0 0 0 -19.27559,0 9.637795,9.637795 0 0 0 19.27559,0 z"
         style="fill:none;stroke:#000000;stroke-width:0.07559055;stroke-dasharray:none"
         id="path367" /><path
         d="m 406.77169,63.902682 a 9.6377955,9.6377955 0 0 0 -19.27559,0 9.6377955,9.6377955 0 0 0 19.27559,0 z"
         style="fill:none;stroke:#000000;stroke-width:0.07559055;stroke-dasharray:none"
         id="path369" /><path
         d="m 366.83925,-21.7327 a 9.6377955,9.6377955 0 0 0 -19.27559,0 9.6377955,9.6377955 0 0 0 19.27559,0 z"
         style="fill:none;stroke:#000000;stroke-width:0.07559055;stroke-dasharray:none"
         id="path371" /><path
         d="m 286.97439,-193.00346 a 9.637795,9.637795 0 0 0 -19.27559,0 9.637795,9.637795 0 0 0 19.27559,0 z"
         style="fill:none;stroke:#000000;stroke-width:0.07559055;stroke-dasharray:none"
         id="path373" /><path
         d="m 491.61855,-419.41425 a 9.6377955,9.6377955 0 0 0 -19.27559,0 9.6377955,9.6377955 0 0 0 19.27559,0 z"
         style="fill:none;stroke:#000000;stroke-width:0.07559055;stroke-dasharray:none"
         id="path375" /><path
         d="m 669.05662,-85.701774 a 9.6377955,9.6377955 0 0 0 -19.27559,0 9.6377955,9.6377955 0 0 0 19.27559,0 z"
         style="fill:none;stroke:#000000;stroke-width:0.07559055;stroke-dasharray:none"
         id="path377" /><path
         d="m 535.97807,-335.98613 a 9.6377955,9.6377955 0 0 0 -19.27559,0 9.6377955,9.6377955 0 0 0 19.27559,0 z"
         style="fill:none;stroke:#000000;stroke-width:0.07559055;stroke-dasharray:none"
         id="path379" /><path
         d="m 624.6971,-169.12989 a 9.637795,9.637795 0 0 0 -19.27559,0 9.637795,9.637795 0 0 0 19.27559,0 z"
         style="fill:none;stroke:#000000;stroke-width:0.07559055;stroke-dasharray:none"
         id="path381" /><path
         d="m 580.33759,-252.55801 a 9.6377955,9.6377955 0 0 0 -19.27559,0 9.6377955,9.6377955 0 0 0 19.27559,0 z"
         style="fill:none;stroke:#000000;stroke-width:0.07559055;stroke-dasharray:none"
         id="path383" /><path
         d="m -328.62992,-154.79494 a 11.52756,11.52756 0 0 0 -23.05512,0 11.52756,11.52756 0 0 0 23.05512,0 z"
         style="fill:none;stroke:#000000;stroke-width:0.07559055;stroke-dasharray:none"
         id="path385" /><path
         d="m 41.76378,490.84017 a 11.52756,11.52756 0 0 0 -23.055119,0 11.527559,11.527559 0 0 0 23.055119,0 z"
         style="fill:none;stroke:#000000;stroke-width:0.07559055;stroke-dasharray:none"
         id="path387" /><path
         d="m 730.98081,-809.64507 a 11.52756,11.52756 0 0 0 -23.05512,0 11.52756,11.52756 0 0 0 23.05512,0 z"
         style="fill:none;stroke:#000000;stroke-width:0.07559055;stroke-dasharray:none"
         id="path389" /><path
         d="m 597.35433,-943.27155 a 11.52756,11.52756 0 0 0 -23.05512,0 11.52756,11.52756 0 0 0 23.05512,0 z"
         style="fill:none;stroke:#000000;stroke-width:0.07559055;stroke-dasharray:none"
         id="path391" /><path
         d="m 194.64888,379.76264 a 11.52756,11.52756 0 0 0 -23.05512,0 11.52756,11.52756 0 0 0 23.05512,0 z"
         style="fill:none;stroke:#000000;stroke-width:0.07559055;stroke-dasharray:none"
         id="path393" /><path
         d="m -328.62992,34.181433 a 11.52756,11.52756 0 0 0 -23.05512,0 11.52756,11.52756 0 0 0 23.05512,0 z"
         style="fill:none;stroke:#000000;stroke-width:0.07559055;stroke-dasharray:none"
         id="path395" /></g></g></svg>
