<?xml version="1.0" encoding="UTF-8" standalone="no"?>
<!-- Created with Inkscape (http://www.inkscape.org/) -->

<svg
   width="610mm"
   height="457mm"
   viewBox="0 0 610 457"
   version="1.1"
   id="svg5"
   xml:space="preserve"
   inkscape:version="1.2 (dc2aedaf03, 2022-05-15)"
   sodipodi:docname="BaseplateSIMMO.svg"
   xmlns:inkscape="http://www.inkscape.org/namespaces/inkscape"
   xmlns:sodipodi="http://sodipodi.sourceforge.net/DTD/sodipodi-0.dtd"
   xmlns="http://www.w3.org/2000/svg"
   xmlns:svg="http://www.w3.org/2000/svg"><sodipodi:namedview
     id="namedview7"
     pagecolor="#ffffff"
     bordercolor="#666666"
     borderopacity="1.0"
     inkscape:showpageshadow="2"
     inkscape:pageopacity="0.0"
     inkscape:pagecheckerboard="0"
     inkscape:deskcolor="#d1d1d1"
     inkscape:document-units="mm"
     showgrid="false"
     inkscape:zoom="0.62992818"
     inkscape:cx="914.38996"
     inkscape:cy="846.92195"
     inkscape:window-width="2560"
     inkscape:window-height="1372"
     inkscape:window-x="1912"
     inkscape:window-y="-8"
     inkscape:window-maximized="1"
     inkscape:current-layer="g258" /><defs
     id="defs2"><marker
       id="DistanceX"
       orient="auto"
       refX="0"
       refY="0"
       style="overflow:visible"><path
         d="M 3,-3 -3,3 M 0,-5 V 5"
         style="stroke:#000000;stroke-width:0.5"
         id="path11" /></marker><pattern
       id="Hatch"
       patternUnits="userSpaceOnUse"
       width="8"
       height="8"
       x="0"
       y="0"><path
         d="M8 4 l-4,4"
         stroke="#000000"
         stroke-width="0.25"
         linecap="square"
         id="path14" /><path
         d="M6 2 l-4,4"
         stroke="#000000"
         stroke-width="0.25"
         linecap="square"
         id="path16" /><path
         d="M4 0 l-4,4"
         stroke="#000000"
         stroke-width="0.25"
         linecap="square"
         id="path18" /></pattern><symbol
       id="*Model_Space" /><symbol
       id="*Paper_Space" /><symbol
       id="*Paper_Space0" /></defs><g
     inkscape:label="Ebene 1"
     inkscape:groupmode="layer"
     id="layer1"><g
       inkscape:label="0"
       id="g258"
       transform="matrix(0,0.26458333,-0.26458333,0,303.00046,133.696)"><path
         d="m -412.38438,-604.29202 -41.15893,7.25743 v 56.56215 h -22.67716 v 37.79528 h 22.67716 v 37.79527 h -22.67716 v 37.79528 h 22.67716 v 37.79527 h -22.67716 v 37.79528 h 22.67716 v 37.79527 h -22.67716 v 37.79528 h 22.67716 v 37.79527 h -22.67716 v 37.79528 h 22.67716 v 37.79528 h -22.67716 v 37.79527 h 22.67716 v 37.795276 h -22.67716 v 37.795276 h 22.67716 v 37.795275 h -22.67716 v 37.795276 h 22.67716 v 37.795276 h -22.67716 v 37.795271 h 22.67716 v 37.79528 h -22.67716 v 37.79527 h 22.67716 v 37.79528 h -22.67716 v 37.79528 h 22.67716 v 37.79527 h -22.67716 v 37.79528 h 22.67716 v 37.79527 h -22.67716 v 37.79528 h 22.67716 v 37.79527 h -22.67716 V 480 h 22.67716 v 37.79528 h -22.67716 v 37.79527 h 22.67716 v 37.79528 h -22.67716 v 37.79527 h 22.67716 v 37.79528 h -22.67716 v 37.79527 h 22.67716 v 37.79528 h -22.67716 v 37.79528 h 22.67716 v 37.79527 h -22.67716 v 37.79528 h 22.67716 v 37.79527 h -22.67716 v 37.79528 h 22.67716 v 37.79527 h -22.67716 v 37.79532 h 22.67716 v 37.7952 h -22.67716 v 37.7953 h 22.67716 v 37.7953 H 0 v -37.7953 h 22.677165 v -37.7953 H 0 v -37.7952 H 22.677165 V 971.33858 H 0 V 933.54331 H 22.677165 V 895.74803 H 0 V 857.95276 H 22.677165 V 820.15748 H 0 V 782.36221 H 22.677165 V 744.56693 H 0 V 706.77165 H 22.677165 V 631.1811 l -8.306209,6.03482 -13.329304,-18.34622 30.57702,-22.2155 13.329304,18.34621 30.57702,-22.2155 -13.329303,-18.34622 30.57702,-22.2155 13.329307,18.34621 30.57702,-22.21551 -13.32931,-18.34621 30.57702,-22.2155 13.32931,18.34621 30.57702,-22.21551 -13.32931,-18.34621 30.57702,-22.2155 13.32931,18.34621 30.57702,-22.21551 -13.32931,-18.34621 30.57702,-22.2155 13.32931,18.34621 30.57702,-22.21551 -13.32931,-18.34621 30.57702,-22.21551 13.32931,18.34621 30.57702,-22.2155 -13.32931,-18.34621 30.57703,-22.21551 13.3293,18.34621 30.57702,-22.2155 -13.3293,-18.34621 30.57702,-22.21551 13.3293,18.34621 30.57702,-22.2155 -13.3293,-18.34622 30.57702,-22.2155 13.3293,18.34621 30.57702,-22.2155 -13.3293,-18.34622 30.57702,-22.2155 13.3293,18.34621 30.57702,-22.21551 -13.3293,-18.34621 30.57702,-22.2155 13.3293,18.34621 30.57702,-22.21551 -13.3293,-18.34621 30.57702,-22.2155 13.3293,18.34621 0.46782,-0.33989 V 94.325366 H 740.7874 V 56.53009 H 718.11024 V 18.734815 h 22.67716 v -37.795276 h -22.67716 v -37.795276 h 22.67716 v -37.795275 h -22.67716 v -37.795278 h 22.67716 v -37.79527 h -22.67716 v -37.79528 h 22.67716 v -37.79527 h -22.67716 v -37.79528 h 22.67716 v -37.79528 h -22.67716 v -37.79527 h 22.67716 v -37.79528 h -22.67716 v -37.79527 h 22.67716 v -37.79528 h -22.67716 v -37.79527 h 22.67716 v -37.79528 h -22.67716 v -37.79527 h 22.67716 v -37.79528 h -22.67716 v -37.79528 h 22.67716 v -37.79527 h -22.67716 v -37.79528 h 22.67716 v -37.79527 h -22.67716 v -37.79528 h 22.67716 v -37.79527 h -22.67716 v -37.79528 h -31.37897 v -22.67716 h -37.79528 v 22.67716 h -37.79528 v -22.67716 h -37.79527 v 22.67716 h -37.79528 v -22.67716 h -37.79527 v 22.67716 h -37.79528 v -22.67716 h -37.79527 v 22.67716 h -37.79528 v -22.67716 h -37.79527 v 22.67716 h -37.79528 v -22.67716 h -37.79528 v 22.67716 h -37.79527 v -22.67716 h -37.79528 v 22.67716 h -37.79527 v -22.67716 h -37.79528 v 22.67716 h -15.11811 v 22.67717 H 82.006857 v 37.79527 h 22.677163 v 37.79528 H 82.006857 v 37.79527 h 22.677163 v 37.79528 H 82.006857 l -51.676119,9.11189 3.937849,22.33265 -37.221081,6.56308 -3.937848,-22.33265 -37.22108,6.56308 3.937848,22.33265 -37.22108,6.56308 -3.937849,-22.33265 -37.221077,6.56308 3.93784,22.33265 -37.22107,6.56308 -3.93785,-22.33264 -37.22108,6.56308 3.93784,22.33264 -37.22108,6.56309 -3.93784,-22.33265 -37.22108,6.56308 3.93784,22.33265 -37.22108,6.56308 -3.93784,-22.33265 -37.22109,6.56308 3.93785,22.33265 -37.22108,6.56308 -3.93785,-22.33265 -37.22108,6.56308 z"
         style="fill:none;stroke:#000000;stroke-width:0.75590552;stroke-dasharray:none"
         id="path26" /><path
         d="m 99.014731,-846.777 a 5.6692915,5.6692915 0 0 0 -11.338583,0 5.6692915,5.6692915 0 0 0 11.338583,0 z"
         style="fill:none;stroke:#000000;stroke-width:0.75590552;stroke-dasharray:none"
         id="path28" /><path
         d="m 17.007874,1065.8268 a 5.6692915,5.6692915 0 0 0 -11.338583,0 5.6692915,5.6692915 0 0 0 11.338583,0 z"
         style="fill:none;stroke:#000000;stroke-width:0.75590552;stroke-dasharray:none"
         id="path30" /><path
         d="m 735.11811,75.427728 a 5.669291,5.669291 0 0 0 -11.33858,0 5.669291,5.669291 0 0 0 11.33858,0 z"
         style="fill:none;stroke:#000000;stroke-width:0.75590552;stroke-dasharray:none"
         id="path32" /><path
         d="m 735.11811,-0.162823 a 5.669291,5.669291 0 0 0 -11.33858,0 5.669291,5.669291 0 0 0 11.33858,0 z"
         style="fill:none;stroke:#000000;stroke-width:0.75590552;stroke-dasharray:none"
         id="path34" /><path
         d="m 735.11811,-75.753374 a 5.669291,5.669291 0 0 0 -11.33858,0 5.669291,5.669291 0 0 0 11.33858,0 z"
         style="fill:none;stroke:#000000;stroke-width:0.75590552;stroke-dasharray:none"
         id="path36" /><path
         d="m 735.11811,-151.34393 a 5.669291,5.669291 0 0 0 -11.33858,0 5.669291,5.669291 0 0 0 11.33858,0 z"
         style="fill:none;stroke:#000000;stroke-width:0.75590552;stroke-dasharray:none"
         id="path38" /><path
         d="m 735.11811,-226.93448 a 5.669291,5.669291 0 0 0 -11.33858,0 5.669291,5.669291 0 0 0 11.33858,0 z"
         style="fill:none;stroke:#000000;stroke-width:0.75590552;stroke-dasharray:none"
         id="path40" /><path
         d="m 735.11811,-302.52503 a 5.669291,5.669291 0 0 0 -11.33858,0 5.669291,5.669291 0 0 0 11.33858,0 z"
         style="fill:none;stroke:#000000;stroke-width:0.75590552;stroke-dasharray:none"
         id="path42" /><path
         d="m 735.11811,-378.11558 a 5.669291,5.669291 0 0 0 -11.33858,0 5.669291,5.669291 0 0 0 11.33858,0 z"
         style="fill:none;stroke:#000000;stroke-width:0.75590552;stroke-dasharray:none"
         id="path44" /><path
         d="m 735.11811,-453.70613 a 5.669291,5.669291 0 0 0 -11.33858,0 5.669291,5.669291 0 0 0 11.33858,0 z"
         style="fill:none;stroke:#000000;stroke-width:0.75590552;stroke-dasharray:none"
         id="path46" /><path
         d="m 735.11811,-529.29668 a 5.669291,5.669291 0 0 0 -11.33858,0 5.669291,5.669291 0 0 0 11.33858,0 z"
         style="fill:none;stroke:#000000;stroke-width:0.75590552;stroke-dasharray:none"
         id="path48" /><path
         d="m 735.11811,-604.88723 a 5.669291,5.669291 0 0 0 -11.33858,0 5.669291,5.669291 0 0 0 11.33858,0 z"
         style="fill:none;stroke:#000000;stroke-width:0.75590552;stroke-dasharray:none"
         id="path50" /><path
         d="m 735.11811,-680.47778 a 5.669291,5.669291 0 0 0 -11.33858,0 5.669291,5.669291 0 0 0 11.33858,0 z"
         style="fill:none;stroke:#000000;stroke-width:0.75590552;stroke-dasharray:none"
         id="path52" /><path
         d="m 735.11811,-756.06834 a 5.669291,5.669291 0 0 0 -11.33858,0 5.669291,5.669291 0 0 0 11.33858,0 z"
         style="fill:none;stroke:#000000;stroke-width:0.75590552;stroke-dasharray:none"
         id="path54" /><path
         d="m 56.579494,-697.49685 a 5.669291,5.669291 0 0 0 -11.338582,0 5.669291,5.669291 0 0 0 11.338582,0 z"
         style="fill:none;stroke:#000000;stroke-width:0.75590552;stroke-dasharray:none"
         id="path56" /><path
         d="m -17.862667,-684.37069 a 5.669291,5.669291 0 0 0 -11.338582,0 5.669291,5.669291 0 0 0 11.338582,0 z"
         style="fill:none;stroke:#000000;stroke-width:0.75590552;stroke-dasharray:none"
         id="path58" /><path
         d="m -92.304827,-671.24453 a 5.6692915,5.6692915 0 0 0 -11.338583,0 5.6692915,5.6692915 0 0 0 11.338583,0 z"
         style="fill:none;stroke:#000000;stroke-width:0.75590552;stroke-dasharray:none"
         id="path60" /><path
         d="m -166.74699,-658.11837 a 5.6692915,5.6692915 0 0 0 -11.33858,0 5.6692915,5.6692915 0 0 0 11.33858,0 z"
         style="fill:none;stroke:#000000;stroke-width:0.75590552;stroke-dasharray:none"
         id="path62" /><path
         d="m -241.18915,-644.99221 a 5.6692915,5.6692915 0 0 0 -11.33858,0 5.6692915,5.6692915 0 0 0 11.33858,0 z"
         style="fill:none;stroke:#000000;stroke-width:0.75590552;stroke-dasharray:none"
         id="path64" /><path
         d="m -315.63131,-631.86605 a 5.6692915,5.6692915 0 0 0 -11.33858,0 5.6692915,5.6692915 0 0 0 11.33858,0 z"
         style="fill:none;stroke:#000000;stroke-width:0.75590552;stroke-dasharray:none"
         id="path66" /><path
         d="m -459.2126,1065.8268 a 5.6692915,5.6692915 0 0 0 -11.33858,0 5.6692915,5.6692915 0 0 0 11.33858,0 z"
         style="fill:none;stroke:#000000;stroke-width:0.75590552;stroke-dasharray:none"
         id="path68" /><path
         d="m -459.2126,990.23622 a 5.6692915,5.6692915 0 0 0 -11.33858,0 5.6692915,5.6692915 0 0 0 11.33858,0 z"
         style="fill:none;stroke:#000000;stroke-width:0.75590552;stroke-dasharray:none"
         id="path70" /><path
         d="m -459.2126,914.64567 a 5.6692915,5.6692915 0 0 0 -11.33858,0 5.6692915,5.6692915 0 0 0 11.33858,0 z"
         style="fill:none;stroke:#000000;stroke-width:0.75590552;stroke-dasharray:none"
         id="path72" /><path
         d="m -459.2126,839.05512 a 5.6692915,5.6692915 0 0 0 -11.33858,0 5.6692915,5.6692915 0 0 0 11.33858,0 z"
         style="fill:none;stroke:#000000;stroke-width:0.75590552;stroke-dasharray:none"
         id="path74" /><path
         d="m -459.2126,763.46457 a 5.6692915,5.6692915 0 0 0 -11.33858,0 5.6692915,5.6692915 0 0 0 11.33858,0 z"
         style="fill:none;stroke:#000000;stroke-width:0.75590552;stroke-dasharray:none"
         id="path76" /><path
         d="m -459.2126,687.87402 a 5.6692915,5.6692915 0 0 0 -11.33858,0 5.6692915,5.6692915 0 0 0 11.33858,0 z"
         style="fill:none;stroke:#000000;stroke-width:0.75590552;stroke-dasharray:none"
         id="path78" /><path
         d="m -459.2126,612.28346 a 5.6692915,5.6692915 0 0 0 -11.33858,0 5.6692915,5.6692915 0 0 0 11.33858,0 z"
         style="fill:none;stroke:#000000;stroke-width:0.75590552;stroke-dasharray:none"
         id="path80" /><path
         d="m -459.2126,536.69291 a 5.6692915,5.6692915 0 0 0 -11.33858,0 5.6692915,5.6692915 0 0 0 11.33858,0 z"
         style="fill:none;stroke:#000000;stroke-width:0.75590552;stroke-dasharray:none"
         id="path82" /><path
         d="m -459.2126,461.10236 a 5.6692915,5.6692915 0 0 0 -11.33858,0 5.6692915,5.6692915 0 0 0 11.33858,0 z"
         style="fill:none;stroke:#000000;stroke-width:0.75590552;stroke-dasharray:none"
         id="path84" /><path
         d="m -459.2126,385.51181 a 5.6692915,5.6692915 0 0 0 -11.33858,0 5.6692915,5.6692915 0 0 0 11.33858,0 z"
         style="fill:none;stroke:#000000;stroke-width:0.75590552;stroke-dasharray:none"
         id="path86" /><path
         d="m -459.2126,309.92126 a 5.6692915,5.6692915 0 0 0 -11.33858,0 5.6692915,5.6692915 0 0 0 11.33858,0 z"
         style="fill:none;stroke:#000000;stroke-width:0.75590552;stroke-dasharray:none"
         id="path88" /><path
         d="m -459.2126,234.33071 a 5.6692915,5.6692915 0 0 0 -11.33858,0 5.6692915,5.6692915 0 0 0 11.33858,0 z"
         style="fill:none;stroke:#000000;stroke-width:0.75590552;stroke-dasharray:none"
         id="path90" /><path
         d="m -459.2126,158.74016 a 5.6692915,5.6692915 0 0 0 -11.33858,0 5.6692915,5.6692915 0 0 0 11.33858,0 z"
         style="fill:none;stroke:#000000;stroke-width:0.75590552;stroke-dasharray:none"
         id="path92" /><path
         d="m -459.2126,83.149606 a 5.6692915,5.6692915 0 0 0 -11.33858,0 5.6692915,5.6692915 0 0 0 11.33858,0 z"
         style="fill:none;stroke:#000000;stroke-width:0.75590552;stroke-dasharray:none"
         id="path94" /><path
         d="m -459.2126,7.559055 a 5.6692915,5.6692915 0 0 0 -11.33858,0 5.6692915,5.6692915 0 0 0 11.33858,0 z"
         style="fill:none;stroke:#000000;stroke-width:0.75590552;stroke-dasharray:none"
         id="path96" /><path
         d="m -459.2126,-68.031496 a 5.6692915,5.6692915 0 0 0 -11.33858,0 5.6692915,5.6692915 0 0 0 11.33858,0 z"
         style="fill:none;stroke:#000000;stroke-width:0.75590552;stroke-dasharray:none"
         id="path98" /><path
         d="m -459.2126,-143.62205 a 5.6692915,5.6692915 0 0 0 -11.33858,0 5.6692915,5.6692915 0 0 0 11.33858,0 z"
         style="fill:none;stroke:#000000;stroke-width:0.75590552;stroke-dasharray:none"
         id="path100" /><path
         d="m -459.2126,-219.2126 a 5.6692915,5.6692915 0 0 0 -11.33858,0 5.6692915,5.6692915 0 0 0 11.33858,0 z"
         style="fill:none;stroke:#000000;stroke-width:0.75590552;stroke-dasharray:none"
         id="path102" /><path
         d="m -459.2126,-294.80315 a 5.6692915,5.6692915 0 0 0 -11.33858,0 5.6692915,5.6692915 0 0 0 11.33858,0 z"
         style="fill:none;stroke:#000000;stroke-width:0.75590552;stroke-dasharray:none"
         id="path104" /><path
         d="m -459.2126,-370.3937 a 5.6692915,5.6692915 0 0 0 -11.33858,0 5.6692915,5.6692915 0 0 0 11.33858,0 z"
         style="fill:none;stroke:#000000;stroke-width:0.75590552;stroke-dasharray:none"
         id="path106" /><path
         d="m -459.2126,-445.98425 a 5.6692915,5.6692915 0 0 0 -11.33858,0 5.6692915,5.6692915 0 0 0 11.33858,0 z"
         style="fill:none;stroke:#000000;stroke-width:0.75590552;stroke-dasharray:none"
         id="path108" /><path
         d="m -459.2126,-521.5748 a 5.6692915,5.6692915 0 0 0 -11.33858,0 5.6692915,5.6692915 0 0 0 11.33858,0 z"
         style="fill:none;stroke:#000000;stroke-width:0.75590552;stroke-dasharray:none"
         id="path110" /><path
         d="m -390.07347,-618.73988 a 5.6692915,5.6692915 0 0 0 -11.33858,0 5.6692915,5.6692915 0 0 0 11.33858,0 z"
         style="fill:none;stroke:#000000;stroke-width:0.75590552;stroke-dasharray:none"
         id="path112" /><path
         d="m 144.36906,-899.69038 a 5.669291,5.669291 0 0 0 -11.33858,0 5.669291,5.669291 0 0 0 11.33858,0 z"
         style="fill:none;stroke:#000000;stroke-width:0.75590552;stroke-dasharray:none"
         id="path114" /><path
         d="m 219.95961,-899.69038 a 5.6692915,5.6692915 0 0 0 -11.33858,0 5.6692915,5.6692915 0 0 0 11.33858,0 z"
         style="fill:none;stroke:#000000;stroke-width:0.75590552;stroke-dasharray:none"
         id="path116" /><path
         d="m 295.55016,-899.69038 a 5.6692915,5.6692915 0 0 0 -11.33858,0 5.6692915,5.6692915 0 0 0 11.33858,0 z"
         style="fill:none;stroke:#000000;stroke-width:0.75590552;stroke-dasharray:none"
         id="path118" /><path
         d="m 371.14071,-899.69038 a 5.6692915,5.6692915 0 0 0 -11.33858,0 5.6692915,5.6692915 0 0 0 11.33858,0 z"
         style="fill:none;stroke:#000000;stroke-width:0.75590552;stroke-dasharray:none"
         id="path120" /><path
         d="m 446.73127,-899.69038 a 5.669295,5.669295 0 0 0 -11.33859,0 5.669295,5.669295 0 0 0 11.33859,0 z"
         style="fill:none;stroke:#000000;stroke-width:0.75590552;stroke-dasharray:none"
         id="path122" /><path
         d="m 522.32182,-899.69038 a 5.669295,5.669295 0 0 0 -11.33859,0 5.669295,5.669295 0 0 0 11.33859,0 z"
         style="fill:none;stroke:#000000;stroke-width:0.75590552;stroke-dasharray:none"
         id="path124" /><path
         d="m 597.91237,-899.69038 a 5.669291,5.669291 0 0 0 -11.33858,0 5.669291,5.669291 0 0 0 11.33858,0 z"
         style="fill:none;stroke:#000000;stroke-width:0.75590552;stroke-dasharray:none"
         id="path126" /><path
         d="m 673.50292,-899.69038 a 5.6692915,5.6692915 0 0 0 -11.33858,0 5.6692915,5.6692915 0 0 0 11.33858,0 z"
         style="fill:none;stroke:#000000;stroke-width:0.75590552;stroke-dasharray:none"
         id="path128" /><path
         d="m 735.11811,-831.65889 a 5.669291,5.669291 0 0 0 -11.33858,0 5.669291,5.669291 0 0 0 11.33858,0 z"
         style="fill:none;stroke:#000000;stroke-width:0.75590552;stroke-dasharray:none"
         id="path130" /><path
         d="m 670.78153,150.40944 a 5.6692915,5.6692915 0 0 0 -11.33858,0 5.6692915,5.6692915 0 0 0 11.33858,0 z"
         style="fill:none;stroke:#000000;stroke-width:0.75590552;stroke-dasharray:none"
         id="path132" /><path
         d="m 609.62749,194.84045 a 5.669291,5.669291 0 0 0 -11.33858,0 5.669291,5.669291 0 0 0 11.33858,0 z"
         style="fill:none;stroke:#000000;stroke-width:0.75590552;stroke-dasharray:none"
         id="path134" /><path
         d="m 548.47345,239.27146 a 5.6692915,5.6692915 0 0 0 -11.33858,0 5.6692915,5.6692915 0 0 0 11.33858,0 z"
         style="fill:none;stroke:#000000;stroke-width:0.75590552;stroke-dasharray:none"
         id="path136" /><path
         d="m 487.31941,283.70247 a 5.669291,5.669291 0 0 0 -11.33858,0 5.669291,5.669291 0 0 0 11.33858,0 z"
         style="fill:none;stroke:#000000;stroke-width:0.75590552;stroke-dasharray:none"
         id="path138" /><path
         d="m 426.16537,328.13348 a 5.6692915,5.6692915 0 0 0 -11.33858,0 5.6692915,5.6692915 0 0 0 11.33858,0 z"
         style="fill:none;stroke:#000000;stroke-width:0.75590552;stroke-dasharray:none"
         id="path140" /><path
         d="m 365.01133,372.5645 a 5.6692915,5.6692915 0 0 0 -11.33858,0 5.6692915,5.6692915 0 0 0 11.33858,0 z"
         style="fill:none;stroke:#000000;stroke-width:0.75590552;stroke-dasharray:none"
         id="path142" /><path
         d="m 303.85729,416.99551 a 5.669295,5.669295 0 0 0 -11.33859,0 5.669295,5.669295 0 0 0 11.33859,0 z"
         style="fill:none;stroke:#000000;stroke-width:0.75590552;stroke-dasharray:none"
         id="path144" /><path
         d="m 242.70325,461.42652 a 5.669295,5.669295 0 0 0 -11.33859,0 5.669295,5.669295 0 0 0 11.33859,0 z"
         style="fill:none;stroke:#000000;stroke-width:0.75590552;stroke-dasharray:none"
         id="path146" /><path
         d="m 181.54921,505.85753 a 5.669295,5.669295 0 0 0 -11.33859,0 5.669295,5.669295 0 0 0 11.33859,0 z"
         style="fill:none;stroke:#000000;stroke-width:0.75590552;stroke-dasharray:none"
         id="path148" /><path
         d="m 120.39517,550.28854 a 5.669295,5.669295 0 0 0 -11.33859,0 5.669295,5.669295 0 0 0 11.33859,0 z"
         style="fill:none;stroke:#000000;stroke-width:0.75590552;stroke-dasharray:none"
         id="path150" /><path
         d="m 59.241126,594.71955 a 5.6692915,5.6692915 0 0 0 -11.338583,0 5.6692915,5.6692915 0 0 0 11.338583,0 z"
         style="fill:none;stroke:#000000;stroke-width:0.75590552;stroke-dasharray:none"
         id="path152" /><path
         d="m -1.912915,639.15056 a 5.6692915,5.6692915 0 0 0 -11.338583,0 5.6692915,5.6692915 0 0 0 11.338583,0 z"
         style="fill:none;stroke:#000000;stroke-width:0.75590552;stroke-dasharray:none"
         id="path154" /><path
         d="m 17.007874,990.23622 a 5.6692915,5.6692915 0 0 0 -11.338583,0 5.6692915,5.6692915 0 0 0 11.338583,0 z"
         style="fill:none;stroke:#000000;stroke-width:0.75590552;stroke-dasharray:none"
         id="path156" /><path
         d="m 17.007874,914.64567 a 5.6692915,5.6692915 0 0 0 -11.338583,0 5.6692915,5.6692915 0 0 0 11.338583,0 z"
         style="fill:none;stroke:#000000;stroke-width:0.75590552;stroke-dasharray:none"
         id="path158" /><path
         d="m 17.007874,839.05512 a 5.6692915,5.6692915 0 0 0 -11.338583,0 5.6692915,5.6692915 0 0 0 11.338583,0 z"
         style="fill:none;stroke:#000000;stroke-width:0.75590552;stroke-dasharray:none"
         id="path160" /><path
         d="m 17.007874,763.46457 a 5.6692915,5.6692915 0 0 0 -11.338583,0 5.6692915,5.6692915 0 0 0 11.338583,0 z"
         style="fill:none;stroke:#000000;stroke-width:0.75590552;stroke-dasharray:none"
         id="path162" /><path
         d="m 17.007874,687.87402 a 5.6692915,5.6692915 0 0 0 -11.338583,0 5.6692915,5.6692915 0 0 0 11.338583,0 z"
         style="fill:none;stroke:#000000;stroke-width:0.75590552;stroke-dasharray:none"
         id="path164" /><path
         d="m 45.406275,-414.27784 a 5.291339,5.291339 0 0 0 -10.582677,0 5.291339,5.291339 0 0 0 10.582677,0 z"
         style="fill:none;stroke:#000000;stroke-width:0.75590552;stroke-dasharray:none"
         id="path166" /><path
         d="m 312.27812,-388.57427 a 5.291339,5.291339 0 0 0 -10.58267,0 5.291339,5.291339 0 0 0 10.58267,0 z"
         style="fill:none;stroke:#000000;stroke-width:0.75590552;stroke-dasharray:none"
         id="path168" /><path
         d="m -376.15504,-548.06641 a 5.29134,5.29134 0 0 0 -10.58268,0 5.29134,5.29134 0 0 0 10.58268,0 z"
         style="fill:none;stroke:#000000;stroke-width:0.75590552;stroke-dasharray:none"
         id="path170" /><path
         d="m -130.49591,-591.38274 a 5.29134,5.29134 0 0 0 -10.58268,0 5.29134,5.29134 0 0 0 10.58268,0 z"
         style="fill:none;stroke:#000000;stroke-width:0.75590552;stroke-dasharray:none"
         id="path172" /><path
         d="m 403.58507,-878.20431 a 5.29134,5.29134 0 0 0 -10.58268,0 5.29134,5.29134 0 0 0 10.58268,0 z"
         style="fill:none;stroke:#000000;stroke-width:0.75590552;stroke-dasharray:none"
         id="path174" /><path
         d="m 157.92594,-834.88798 a 5.29134,5.29134 0 0 0 -10.58268,0 5.29134,5.29134 0 0 0 10.58268,0 z"
         style="fill:none;stroke:#000000;stroke-width:0.75590552;stroke-dasharray:none"
         id="path176" /><path
         d="m 262.9711,-7.838254 a 5.291339,5.291339 0 0 0 -10.58267,0 5.291339,5.291339 0 0 0 10.58267,0 z"
         style="fill:none;stroke:#000000;stroke-width:0.75590552;stroke-dasharray:none"
         id="path178" /><path
         d="m 24.422011,65.093523 a 5.291339,5.291339 0 0 0 -10.582677,0 5.291339,5.291339 0 0 0 10.582677,0 z"
         style="fill:none;stroke:#000000;stroke-width:0.75590552;stroke-dasharray:none"
         id="path180" /><path
         d="m 53.152711,159.06741 a 5.291339,5.291339 0 0 0 -10.582677,0 5.291339,5.291339 0 0 0 10.582677,0 z"
         style="fill:none;stroke:#000000;stroke-width:0.75590552;stroke-dasharray:none"
         id="path182" /><path
         d="m 291.7018,86.135631 a 5.29134,5.29134 0 0 0 -10.58268,0 5.29134,5.29134 0 0 0 10.58268,0 z"
         style="fill:none;stroke:#000000;stroke-width:0.75590552;stroke-dasharray:none"
         id="path184" /><path
         d="m 174.98995,-738.11317 a 5.29134,5.29134 0 0 0 -10.58268,0 5.29134,5.29134 0 0 0 10.58268,0 z"
         style="fill:none;stroke:#000000;stroke-width:0.75590552;stroke-dasharray:none"
         id="path186" /><path
         d="m 420.64908,-781.4295 a 5.29134,5.29134 0 0 0 -10.58268,0 5.29134,5.29134 0 0 0 10.58268,0 z"
         style="fill:none;stroke:#000000;stroke-width:0.75590552;stroke-dasharray:none"
         id="path188" /><path
         d="m -113.4319,-494.60793 a 5.29134,5.29134 0 0 0 -10.58268,0 5.29134,5.29134 0 0 0 10.58268,0 z"
         style="fill:none;stroke:#000000;stroke-width:0.75590552;stroke-dasharray:none"
         id="path190" /><path
         d="m -359.09103,-451.2916 a 5.29134,5.29134 0 0 0 -10.58268,0 5.29134,5.29134 0 0 0 10.58268,0 z"
         style="fill:none;stroke:#000000;stroke-width:0.75590552;stroke-dasharray:none"
         id="path192" /><path
         d="m 72.492528,-319.81685 a 5.291339,5.291339 0 0 0 -10.582677,0 5.291339,5.291339 0 0 0 10.582677,0 z"
         style="fill:none;stroke:#000000;stroke-width:0.75590552;stroke-dasharray:none"
         id="path194" /><path
         d="m 285.19187,-483.03526 a 5.29134,5.29134 0 0 0 -10.58268,0 5.29134,5.29134 0 0 0 10.58268,0 z"
         style="fill:none;stroke:#000000;stroke-width:0.75590552;stroke-dasharray:none"
         id="path196" /><path
         d="m 99.014731,-771.18645 a 5.6692915,5.6692915 0 0 0 -11.338583,0 5.6692915,5.6692915 0 0 0 11.338583,0 z"
         style="fill:none;stroke:#000000;stroke-width:0.75590552;stroke-dasharray:none"
         id="path198" /><path
         d="m -221.48031,973.27806 a 5.29134,5.29134 0 0 0 -10.58268,0 5.29134,5.29134 0 0 0 10.58268,0 z"
         style="fill:none;stroke:#000000;stroke-width:0.75590552;stroke-dasharray:none"
         id="path200" /><path
         d="m -221.48031,878.78987 a 5.29134,5.29134 0 0 0 -10.58268,0 5.29134,5.29134 0 0 0 10.58268,0 z"
         style="fill:none;stroke:#000000;stroke-width:0.75590552;stroke-dasharray:none"
         id="path202" /><path
         d="m -221.48031,784.30168 a 5.29134,5.29134 0 0 0 -10.58268,0 5.29134,5.29134 0 0 0 10.58268,0 z"
         style="fill:none;stroke:#000000;stroke-width:0.75590552;stroke-dasharray:none"
         id="path204" /><path
         d="m -221.48031,689.81349 a 5.29134,5.29134 0 0 0 -10.58268,0 5.29134,5.29134 0 0 0 10.58268,0 z"
         style="fill:none;stroke:#000000;stroke-width:0.75590552;stroke-dasharray:none"
         id="path206" /><path
         d="m -221.48031,595.3253 a 5.29134,5.29134 0 0 0 -10.58268,0 5.29134,5.29134 0 0 0 10.58268,0 z"
         style="fill:none;stroke:#000000;stroke-width:0.75590552;stroke-dasharray:none"
         id="path208" /><path
         d="m -221.48031,500.83711 a 5.29134,5.29134 0 0 0 -10.58268,0 5.29134,5.29134 0 0 0 10.58268,0 z"
         style="fill:none;stroke:#000000;stroke-width:0.75590552;stroke-dasharray:none"
         id="path210" /><path
         d="m -221.48031,406.34892 a 5.29134,5.29134 0 0 0 -10.58268,0 5.29134,5.29134 0 0 0 10.58268,0 z"
         style="fill:none;stroke:#000000;stroke-width:0.75590552;stroke-dasharray:none"
         id="path212" /><path
         d="m -221.48031,311.86074 a 5.29134,5.29134 0 0 0 -10.58268,0 5.29134,5.29134 0 0 0 10.58268,0 z"
         style="fill:none;stroke:#000000;stroke-width:0.75590552;stroke-dasharray:none"
         id="path214" /><path
         d="m -221.48031,217.37255 a 5.29134,5.29134 0 0 0 -10.58268,0 5.29134,5.29134 0 0 0 10.58268,0 z"
         style="fill:none;stroke:#000000;stroke-width:0.75590552;stroke-dasharray:none"
         id="path216" /><path
         d="m -221.48031,122.88436 a 5.29134,5.29134 0 0 0 -10.58268,0 5.29134,5.29134 0 0 0 10.58268,0 z"
         style="fill:none;stroke:#000000;stroke-width:0.75590552;stroke-dasharray:none"
         id="path218" /><path
         d="m -221.48031,28.396169 a 5.29134,5.29134 0 0 0 -10.58268,0 5.29134,5.29134 0 0 0 10.58268,0 z"
         style="fill:none;stroke:#000000;stroke-width:0.75590552;stroke-dasharray:none"
         id="path220" /><path
         d="m -221.48031,-66.09202 a 5.29134,5.29134 0 0 0 -10.58268,0 5.29134,5.29134 0 0 0 10.58268,0 z"
         style="fill:none;stroke:#000000;stroke-width:0.75590552;stroke-dasharray:none"
         id="path222" /><path
         d="m -221.48031,-160.58021 a 5.29134,5.29134 0 0 0 -10.58268,0 5.29134,5.29134 0 0 0 10.58268,0 z"
         style="fill:none;stroke:#000000;stroke-width:0.75590552;stroke-dasharray:none"
         id="path224" /><path
         d="m -221.48031,-255.0684 a 5.29134,5.29134 0 0 0 -10.58268,0 5.29134,5.29134 0 0 0 10.58268,0 z"
         style="fill:none;stroke:#000000;stroke-width:0.75590552;stroke-dasharray:none"
         id="path226" /><path
         d="m -221.48031,-349.55659 a 5.29134,5.29134 0 0 0 -10.58268,0 5.29134,5.29134 0 0 0 10.58268,0 z"
         style="fill:none;stroke:#000000;stroke-width:0.75590552;stroke-dasharray:none"
         id="path228" /><path
         d="m 442.35767,149.53806 a 5.29134,5.29134 0 0 0 -10.58268,0 5.29134,5.29134 0 0 0 10.58268,0 z"
         style="fill:none;stroke:#000000;stroke-width:0.75590552;stroke-dasharray:none"
         id="path230" /><path
         d="m 242.69549,-278.63884 a 5.291339,5.291339 0 0 0 -10.58267,0 5.291339,5.291339 0 0 0 10.58267,0 z"
         style="fill:none;stroke:#000000;stroke-width:0.75590552;stroke-dasharray:none"
         id="path232" /><path
         d="m 322.56036,-107.36808 a 5.291339,5.291339 0 0 0 -10.58267,0 5.291339,5.291339 0 0 0 10.58267,0 z"
         style="fill:none;stroke:#000000;stroke-width:0.75590552;stroke-dasharray:none"
         id="path234" /><path
         d="m 402.42523,63.902682 a 5.29134,5.29134 0 0 0 -10.58268,0 5.29134,5.29134 0 0 0 10.58268,0 z"
         style="fill:none;stroke:#000000;stroke-width:0.75590552;stroke-dasharray:none"
         id="path236" /><path
         d="m 362.4928,-21.7327 a 5.29134,5.29134 0 0 0 -10.58268,0 5.29134,5.29134 0 0 0 10.58268,0 z"
         style="fill:none;stroke:#000000;stroke-width:0.75590552;stroke-dasharray:none"
         id="path238" /><path
         d="m 282.62793,-193.00346 a 5.29134,5.29134 0 0 0 -10.58268,0 5.29134,5.29134 0 0 0 10.58268,0 z"
         style="fill:none;stroke:#000000;stroke-width:0.75590552;stroke-dasharray:none"
         id="path240" /><path
         d="m 482.2901,235.17344 a 5.29134,5.29134 0 0 0 -10.58268,0 5.29134,5.29134 0 0 0 10.58268,0 z"
         style="fill:none;stroke:#000000;stroke-width:0.75590552;stroke-dasharray:none"
         id="path242" /><path
         d="m 398.55306,-586.27049 a 5.29134,5.29134 0 0 0 -10.58268,0 5.29134,5.29134 0 0 0 10.58268,0 z"
         style="fill:none;stroke:#000000;stroke-width:0.75590552;stroke-dasharray:none"
         id="path244" /><path
         d="m 575.99113,-252.55801 a 5.29134,5.29134 0 0 0 -10.58268,0 5.29134,5.29134 0 0 0 10.58268,0 z"
         style="fill:none;stroke:#000000;stroke-width:0.75590552;stroke-dasharray:none"
         id="path246" /><path
         d="m 620.35065,-169.12989 a 5.29134,5.29134 0 0 0 -10.58268,0 5.29134,5.29134 0 0 0 10.58268,0 z"
         style="fill:none;stroke:#000000;stroke-width:0.75590552;stroke-dasharray:none"
         id="path248" /><path
         d="m 442.91258,-502.84237 a 5.29134,5.29134 0 0 0 -10.58268,0 5.29134,5.29134 0 0 0 10.58268,0 z"
         style="fill:none;stroke:#000000;stroke-width:0.75590552;stroke-dasharray:none"
         id="path250" /><path
         d="m 531.63161,-335.98613 a 5.29134,5.29134 0 0 0 -10.58268,0 5.29134,5.29134 0 0 0 10.58268,0 z"
         style="fill:none;stroke:#000000;stroke-width:0.75590552;stroke-dasharray:none"
         id="path252" /><path
         d="m 664.71016,-85.701774 a 5.291339,5.291339 0 0 0 -10.58267,0 5.291339,5.291339 0 0 0 10.58267,0 z"
         style="fill:none;stroke:#000000;stroke-width:0.75590552;stroke-dasharray:none"
         id="path254" /><path
         d="m 487.27209,-419.41425 a 5.291339,5.291339 0 0 0 -10.58267,0 5.291339,5.291339 0 0 0 10.58267,0 z"
         style="fill:none;stroke:#000000;stroke-width:0.75590552;stroke-dasharray:none"
         id="path256" /></g></g></svg>
