<?xml version="1.0" encoding="UTF-8" standalone="no"?>
<!-- Created with Inkscape (http://www.inkscape.org/) -->

<svg
   width="590mm"
   height="400mm"
   viewBox="0 0 590 400"
   version="1.1"
   id="svg5"
   xml:space="preserve"
   inkscape:version="1.2 (dc2aedaf03, 2022-05-15)"
   sodipodi:docname="Sidewall_Back1.svg"
   xmlns:inkscape="http://www.inkscape.org/namespaces/inkscape"
   xmlns:sodipodi="http://sodipodi.sourceforge.net/DTD/sodipodi-0.dtd"
   xmlns="http://www.w3.org/2000/svg"
   xmlns:svg="http://www.w3.org/2000/svg"><sodipodi:namedview
     id="namedview7"
     pagecolor="#ffffff"
     bordercolor="#666666"
     borderopacity="1.0"
     inkscape:showpageshadow="2"
     inkscape:pageopacity="0.0"
     inkscape:pagecheckerboard="0"
     inkscape:deskcolor="#d1d1d1"
     inkscape:document-units="mm"
     showgrid="false"
     inkscape:zoom="0.62992818"
     inkscape:cx="677.06131"
     inkscape:cy="613.56201"
     inkscape:window-width="2560"
     inkscape:window-height="1372"
     inkscape:window-x="1912"
     inkscape:window-y="-8"
     inkscape:window-maximized="1"
     inkscape:current-layer="g381" /><defs
     id="defs2"><marker
       id="DistanceX"
       orient="auto"
       refX="0.0"
       refY="0.0"
       style="overflow:visible"><path
         d="M 3,-3 L -3,3 M 0,-5 L  0,5"
         style="stroke:#000000; stroke-width:0.5"
         id="path134" /></marker><pattern
       id="Hatch"
       patternUnits="userSpaceOnUse"
       width="8"
       height="8"
       x="0"
       y="0"><path
         d="M8 4 l-4,4"
         stroke="#000000"
         stroke-width="0.25"
         linecap="square"
         id="path137" /><path
         d="M6 2 l-4,4"
         stroke="#000000"
         stroke-width="0.25"
         linecap="square"
         id="path139" /><path
         d="M4 0 l-4,4"
         stroke="#000000"
         stroke-width="0.25"
         linecap="square"
         id="path141" /></pattern><symbol
       id="*Model_Space" /><symbol
       id="*Paper_Space" /><symbol
       id="*Paper_Space0" /><marker
       id="DistanceX-7"
       orient="auto"
       refX="0.0"
       refY="0.0"
       style="overflow:visible"><path
         d="M 3,-3 L -3,3 M 0,-5 L  0,5"
         style="stroke:#000000; stroke-width:0.5"
         id="path352" /></marker><pattern
       id="Hatch-8"
       patternUnits="userSpaceOnUse"
       width="8"
       height="8"
       x="0"
       y="0"><path
         d="M8 4 l-4,4"
         stroke="#000000"
         stroke-width="0.25"
         linecap="square"
         id="path355" /><path
         d="M6 2 l-4,4"
         stroke="#000000"
         stroke-width="0.25"
         linecap="square"
         id="path357" /><path
         d="M4 0 l-4,4"
         stroke="#000000"
         stroke-width="0.25"
         linecap="square"
         id="path359" /></pattern><symbol
       id="*Model_Space-6" /><symbol
       id="*Paper_Space-3" /><symbol
       id="*Paper_Space0-2" /></defs><g
     inkscape:label="Ebene 1"
     inkscape:groupmode="layer"
     id="layer1"><g
       inkscape:label="0"
       id="g163"
       transform="matrix(0.26458333,0,0,0.26458333,18.132292,-282.8677)"><g
         inkscape:label="0"
         id="g381"><path
           d="m 84.094488,1443.7795 v -9.0708 h 20.787402 v 9.0708 z"
           style="fill:none;stroke:#000000;stroke-width:0.07559055;stroke-dasharray:none"
           id="path367" /><path
           d="m 310.86614,1443.7795 v -9.0708 h 20.7874 v 9.0708 z"
           style="fill:none;stroke:#000000;stroke-width:0.07559055;stroke-dasharray:none"
           id="path369" /><path
           d="m 537.63779,1443.7795 v -9.0708 h 20.78741 v 9.0708 z"
           style="fill:none;stroke:#000000;stroke-width:0.07559055;stroke-dasharray:none"
           id="path371" /><path
           d="m 84.094488,1142.9291 v -9.0708 h 20.787402 v 9.0708 z"
           style="fill:none;stroke:#000000;stroke-width:0.07559055;stroke-dasharray:none"
           id="path373" /><path
           d="m 310.86614,1142.9291 v -9.0708 h 20.7874 v 9.0708 z"
           style="fill:none;stroke:#000000;stroke-width:0.07559055;stroke-dasharray:none"
           id="path375" /><path
           d="m 537.63779,1142.9291 v -9.0708 h 20.78741 v 9.0708 z"
           style="fill:none;stroke:#000000;stroke-width:0.07559055;stroke-dasharray:none"
           id="path377" /><path
           d="m -0.377953,1477.7953 v -22.6772 h 38.551181 v 22.6772 h 37.03937 v -22.6772 h 38.551182 v 22.6772 h 37.03937 v -22.6772 h 38.55118 v 22.6772 h 37.03937 v -22.6772 h 38.55118 v 22.6772 h 37.03937 v -22.6772 h 38.55118 v 22.6772 h 37.03937 v -22.6772 h 38.55118 v 22.6772 h 37.03937 v -22.6772 h 38.55119 v 22.6772 h 37.03937 v -22.6772 h 38.55118 v 22.6772 h 37.03937 v -22.6772 h 38.55118 v 22.6772 h 53.67818 v -355.2756 h -92.22936 v -22.6772 h -37.03937 v 22.6772 h -38.55118 v -22.6772 h -37.03937 v 22.6772 h -38.55119 v -22.6772 h -37.03937 v 22.6772 H 377.5748 v -22.6772 h -37.03937 v 22.6772 h -38.55118 v -22.6772 h -37.03937 v 22.6772 H 226.3937 v -22.6772 h -37.03937 v 22.6772 h -38.55118 v -22.6772 h -37.03937 v 22.6772 H 75.212598 v -22.6772 h -37.03937 v 22.6772 H -0.377953 v -22.6772 h -37.417323 v 377.9528 z"
           style="fill:none;stroke:#000000;stroke-width:0.07559055;stroke-dasharray:none"
           id="path379" /></g></g></g></svg>
