<?xml version="1.0" encoding="UTF-8" standalone="no"?>
<!-- Created with Inkscape (http://www.inkscape.org/) -->

<svg
   width="590mm"
   height="400mm"
   viewBox="0 0 590 400"
   version="1.1"
   id="svg362"
   xml:space="preserve"
   inkscape:version="1.2 (dc2aedaf03, 2022-05-15)"
   sodipodi:docname="Sidewall_Mirror.svg"
   xmlns:inkscape="http://www.inkscape.org/namespaces/inkscape"
   xmlns:sodipodi="http://sodipodi.sourceforge.net/DTD/sodipodi-0.dtd"
   xmlns="http://www.w3.org/2000/svg"
   xmlns:svg="http://www.w3.org/2000/svg"><sodipodi:namedview
     id="namedview364"
     pagecolor="#ffffff"
     bordercolor="#666666"
     borderopacity="1.0"
     inkscape:showpageshadow="2"
     inkscape:pageopacity="0.0"
     inkscape:pagecheckerboard="0"
     inkscape:deskcolor="#d1d1d1"
     inkscape:document-units="mm"
     showgrid="false"
     inkscape:zoom="1.7817059"
     inkscape:cx="566.03055"
     inkscape:cy="224.78457"
     inkscape:window-width="2560"
     inkscape:window-height="1372"
     inkscape:window-x="1912"
     inkscape:window-y="-8"
     inkscape:window-maximized="1"
     inkscape:current-layer="g514" /><defs
     id="defs359"><inkscape:path-effect
       effect="bspline"
       id="path-effect312"
       is_visible="true"
       lpeversion="1"
       weight="33.333333"
       steps="2"
       helper_size="0"
       apply_no_weight="true"
       apply_with_weight="true"
       only_selected="false" /><marker
       id="DistanceX"
       orient="auto"
       refX="0.0"
       refY="0.0"
       style="overflow:visible"><path
         d="M 3,-3 L -3,3 M 0,-5 L  0,5"
         style="stroke:#000000; stroke-width:0.5"
         id="path485" /></marker><pattern
       id="Hatch"
       patternUnits="userSpaceOnUse"
       width="8"
       height="8"
       x="0"
       y="0"><path
         d="M8 4 l-4,4"
         stroke="#000000"
         stroke-width="0.25"
         linecap="square"
         id="path488" /><path
         d="M6 2 l-4,4"
         stroke="#000000"
         stroke-width="0.25"
         linecap="square"
         id="path490" /><path
         d="M4 0 l-4,4"
         stroke="#000000"
         stroke-width="0.25"
         linecap="square"
         id="path492" /></pattern><symbol
       id="*Model_Space" /><symbol
       id="*Paper_Space" /><symbol
       id="*Paper_Space0" /></defs><g
     inkscape:label="Ebene 1"
     inkscape:groupmode="layer"
     id="layer1"><g
       inkscape:label="0"
       id="g514"
       transform="matrix(0.26458333,0,0,0.26458333,18.132292,-282.8677)"><path
         d="m 84.094488,1368.189 v -9.0709 h 20.787402 v 9.0709 z"
         style="fill:none;stroke:#000000;stroke-width:0.07559055;stroke-dasharray:none"
         id="path500" /><path
         d="m 310.86614,1368.189 v -9.0709 h 20.7874 v 9.0709 z"
         style="fill:none;stroke:#000000;stroke-width:0.07559055;stroke-dasharray:none"
         id="path502" /><path
         d="m 537.63779,1368.189 v -9.0709 h 20.78741 v 9.0709 z"
         style="fill:none;stroke:#000000;stroke-width:0.07559055;stroke-dasharray:none"
         id="path504" /><path
         d="m 84.094488,1142.9291 v -9.0708 h 20.787402 v 9.0708 z"
         style="fill:none;stroke:#000000;stroke-width:0.07559055;stroke-dasharray:none"
         id="path506" /><path
         d="m 310.86614,1142.9291 v -9.0708 h 20.7874 v 9.0708 z"
         style="fill:none;stroke:#000000;stroke-width:0.07559055;stroke-dasharray:none"
         id="path508" /><path
         d="m 537.63779,1142.9291 v -9.0708 h 20.78741 v 9.0708 z"
         style="fill:none;stroke:#000000;stroke-width:0.07559055;stroke-dasharray:none"
         id="path510" /><path
         d="m -0.377953,1402.2047 v -22.6771 h 38.551181 v 22.6771 h 37.03937 v -22.6771 h 38.551182 v 22.6771 h 37.03937 v -22.6771 h 38.55118 v 22.6771 h 37.03937 v -22.6771 h 38.55118 v 22.6771 h 37.03937 v -22.6771 h 38.55118 v 22.6771 h 37.03937 v -22.6771 h 38.55118 v 22.6771 h 37.03937 v -22.6771 h 38.55119 v 22.6771 h 37.03937 v -22.6771 h 38.55118 v 22.6771 h 37.03937 v -22.6771 h 38.55118 v 22.6771 h 53.67818 v -279.685 h -92.22936 v -22.6772 h -37.03937 v 22.6772 h -38.55118 v -22.6772 h -37.03937 v 22.6772 h -38.55119 v -22.6772 h -37.03937 v 22.6772 H 377.5748 v -22.6772 h -37.03937 v 22.6772 h -38.55118 v -22.6772 h -37.03937 v 22.6772 H 226.3937 v -22.6772 h -37.03937 v 22.6772 h -38.55118 v -22.6772 h -37.03937 v 22.6772 H 75.212598 v -22.6772 h -37.03937 v 22.6772 H -0.377953 v -22.6772 h -37.417323 v 302.3622 z"
         style="fill:none;stroke:#000000;stroke-width:0.07559055;stroke-dasharray:none"
         id="path512" /></g></g></svg>
