<?xml version="1.0" encoding="UTF-8" standalone="no"?>
<!-- Created with Inkscape (http://www.inkscape.org/) -->

<svg
   width="590mm"
   height="400mm"
   viewBox="0 0 590 400"
   version="1.1"
   id="svg5"
   xml:space="preserve"
   inkscape:version="1.2 (dc2aedaf03, 2022-05-15)"
   sodipodi:docname="Sidewall_Laser.svg"
   xmlns:inkscape="http://www.inkscape.org/namespaces/inkscape"
   xmlns:sodipodi="http://sodipodi.sourceforge.net/DTD/sodipodi-0.dtd"
   xmlns="http://www.w3.org/2000/svg"
   xmlns:svg="http://www.w3.org/2000/svg"><sodipodi:namedview
     id="namedview7"
     pagecolor="#ffffff"
     bordercolor="#666666"
     borderopacity="1.0"
     inkscape:showpageshadow="2"
     inkscape:pageopacity="0.0"
     inkscape:pagecheckerboard="0"
     inkscape:deskcolor="#d1d1d1"
     inkscape:document-units="mm"
     showgrid="false"
     inkscape:zoom="1.2598564"
     inkscape:cx="789.3757"
     inkscape:cy="317.89338"
     inkscape:window-width="2560"
     inkscape:window-height="1372"
     inkscape:window-x="1912"
     inkscape:window-y="-8"
     inkscape:window-maximized="1"
     inkscape:current-layer="g167" /><defs
     id="defs2"><inkscape:path-effect
       effect="bspline"
       id="path-effect4871"
       is_visible="true"
       lpeversion="1"
       weight="33.333333"
       steps="2"
       helper_size="0"
       apply_no_weight="true"
       apply_with_weight="true"
       only_selected="false" /><marker
       id="DistanceX"
       orient="auto"
       refX="0.0"
       refY="0.0"
       style="overflow:visible"><path
         d="M 3,-3 L -3,3 M 0,-5 L  0,5"
         style="stroke:#000000; stroke-width:0.5"
         id="path134" /></marker><pattern
       id="Hatch"
       patternUnits="userSpaceOnUse"
       width="8"
       height="8"
       x="0"
       y="0"><path
         d="M8 4 l-4,4"
         stroke="#000000"
         stroke-width="0.25"
         linecap="square"
         id="path137" /><path
         d="M6 2 l-4,4"
         stroke="#000000"
         stroke-width="0.25"
         linecap="square"
         id="path139" /><path
         d="M4 0 l-4,4"
         stroke="#000000"
         stroke-width="0.25"
         linecap="square"
         id="path141" /></pattern><symbol
       id="*Model_Space" /><symbol
       id="*Paper_Space" /><symbol
       id="*Paper_Space0" /></defs><g
     inkscape:label="Ebene 1"
     inkscape:groupmode="layer"
     id="layer1"><g
       inkscape:label="0"
       id="g167"
       transform="matrix(0.26458333,0,0,0.26458333,25.397717,-282.8677)"><path
         d="m 76.95981,1358.6559 v 9.0709 H 56.172408 v -9.0709 z"
         style="fill:none;stroke:#000000;stroke-width:0.0755906;stroke-dasharray:none"
         id="path149" /><path
         d="m 379.32201,1358.6559 v 9.0709 h -20.7874 v -9.0709 z"
         style="fill:none;stroke:#000000;stroke-width:0.0755906;stroke-dasharray:none"
         id="path151" /><path
         d="m 681.68421,1358.6559 v 9.0709 h -20.7874 v -9.0709 z"
         style="fill:none;stroke:#000000;stroke-width:0.0755906;stroke-dasharray:none"
         id="path153" /><path
         d="m 984.04642,1358.6559 v 9.0709 h -20.7874 v -9.0709 z"
         style="fill:none;stroke:#000000;stroke-width:0.0755906;stroke-dasharray:none"
         id="path155" /><path
         d="m 76.95981,1133.3961 v 9.0708 H 56.172408 v -9.0708 z"
         style="fill:none;stroke:#000000;stroke-width:0.0755906;stroke-dasharray:none"
         id="path157" /><path
         d="m 379.32201,1133.3961 v 9.0708 h -20.7874 v -9.0708 z"
         style="fill:none;stroke:#000000;stroke-width:0.0755906;stroke-dasharray:none"
         id="path159" /><path
         d="m 681.68421,1133.3961 v 9.0708 h -20.7874 v -9.0708 z"
         style="fill:none;stroke:#000000;stroke-width:0.0755906;stroke-dasharray:none"
         id="path161" /><path
         d="m 963.25902,1142.4669 v -9.0708 h 20.7874 v 9.0708 z"
         style="fill:none;stroke:#000000;stroke-width:0.0755906;stroke-dasharray:none"
         id="path163" /><path
         d="m 161.43225,1379.0654 v 22.6771 h 37.03937 v -22.6771 h 38.55118 v 22.6771 h 37.03937 v -22.6771 h 38.55118 v 22.6771 h 37.03937 v -22.6771 h 38.55118 v 22.6771 h 37.03937 v -22.6771 h 38.55118 v 22.6771 h 37.03937 v -22.6771 H 539.385 v 22.6771 h 37.03937 v -22.6771 h 38.55118 v 22.6771 h 37.03937 v -22.6771 h 38.55118 v 22.6771 h 37.03937 v -22.6771 h 38.55119 v 22.6771 h 37.03936 v -22.6771 h 38.55119 v 22.6771 h 37.03937 v -22.6771 h 38.55118 v 22.6771 h 37.03937 v -22.6771 h 38.55118 v 22.6771 h 37.03939 v -22.6771 h 37.962 v -257.0079 h -37.962 v -22.6772 h -37.03939 v 22.6772 h -38.55118 v -22.6772 h -37.03937 v 22.6772 h -38.55118 v -22.6772 h -37.03937 v 22.6772 h -38.55119 v -22.6772 h -37.03936 v 22.6772 h -38.55119 v -22.6772 H 690.5661 v 22.6772 h -38.55118 v -22.6772 h -37.03937 v 22.6772 h -38.55118 v -22.6772 H 539.385 v 22.6772 h -38.55118 v -22.6772 h -37.03937 v 22.6772 h -38.55118 v -22.6772 H 388.2039 v 22.6772 h -38.55118 v -22.6772 h -37.03937 v 22.6772 h -38.55118 v -22.6772 H 237.0228 v 22.6772 h -38.55118 v -22.6772 h -37.03937 v 22.6772 h -38.55118 v -22.6772 H 85.841699 v 22.6772 H 47.290518 v -22.6772 h -37.03937 v 22.6772 h -38.551181 v -22.6772 h -37.417323 v 302.3622 h 37.417323 v -22.6771 h 38.551181 v 22.6771 h 37.03937 v -22.6771 h 38.551181 v 22.6771 h 37.039371 v -22.6771 z"
         style="fill:none;stroke:#000000;stroke-width:0.0755906;stroke-dasharray:none"
         id="path165" /></g></g></svg>
