<?xml version="1.0" encoding="UTF-8" standalone="no"?>
<!-- Created with Inkscape (http://www.inkscape.org/) -->

<svg
   width="590mm"
   height="400mm"
   viewBox="0 0 590 400"
   version="1.1"
   id="svg5"
   xml:space="preserve"
   inkscape:version="1.2 (dc2aedaf03, 2022-05-15)"
   sodipodi:docname="Sidewall_Laser.svg"
   xmlns:inkscape="http://www.inkscape.org/namespaces/inkscape"
   xmlns:sodipodi="http://sodipodi.sourceforge.net/DTD/sodipodi-0.dtd"
   xmlns="http://www.w3.org/2000/svg"
   xmlns:svg="http://www.w3.org/2000/svg"><sodipodi:namedview
     id="namedview7"
     pagecolor="#ffffff"
     bordercolor="#666666"
     borderopacity="1.0"
     inkscape:showpageshadow="2"
     inkscape:pageopacity="0.0"
     inkscape:pagecheckerboard="0"
     inkscape:deskcolor="#d1d1d1"
     inkscape:document-units="mm"
     showgrid="false"
     inkscape:zoom="1.2598564"
     inkscape:cx="728.2576"
     inkscape:cy="318.68711"
     inkscape:window-width="2560"
     inkscape:window-height="1372"
     inkscape:window-x="1912"
     inkscape:window-y="-8"
     inkscape:window-maximized="1"
     inkscape:current-layer="g294" /><defs
     id="defs2"><inkscape:path-effect
       effect="bspline"
       id="path-effect4871"
       is_visible="true"
       lpeversion="1"
       weight="33.333333"
       steps="2"
       helper_size="0"
       apply_no_weight="true"
       apply_with_weight="true"
       only_selected="false" /><marker
       id="DistanceX"
       orient="auto"
       refX="0.0"
       refY="0.0"
       style="overflow:visible"><path
         d="M 3,-3 L -3,3 M 0,-5 L  0,5"
         style="stroke:#000000; stroke-width:0.5"
         id="path134" /></marker><pattern
       id="Hatch"
       patternUnits="userSpaceOnUse"
       width="8"
       height="8"
       x="0"
       y="0"><path
         d="M8 4 l-4,4"
         stroke="#000000"
         stroke-width="0.25"
         linecap="square"
         id="path137" /><path
         d="M6 2 l-4,4"
         stroke="#000000"
         stroke-width="0.25"
         linecap="square"
         id="path139" /><path
         d="M4 0 l-4,4"
         stroke="#000000"
         stroke-width="0.25"
         linecap="square"
         id="path141" /></pattern><symbol
       id="*Model_Space" /><symbol
       id="*Paper_Space" /><symbol
       id="*Paper_Space0" /><marker
       id="DistanceX-2"
       orient="auto"
       refX="0.0"
       refY="0.0"
       style="overflow:visible"><path
         d="M 3,-3 L -3,3 M 0,-5 L  0,5"
         style="stroke:#000000; stroke-width:0.5"
         id="path261" /></marker><pattern
       id="Hatch-4"
       patternUnits="userSpaceOnUse"
       width="8"
       height="8"
       x="0"
       y="0"><path
         d="M8 4 l-4,4"
         stroke="#000000"
         stroke-width="0.25"
         linecap="square"
         id="path264" /><path
         d="M6 2 l-4,4"
         stroke="#000000"
         stroke-width="0.25"
         linecap="square"
         id="path266" /><path
         d="M4 0 l-4,4"
         stroke="#000000"
         stroke-width="0.25"
         linecap="square"
         id="path268" /></pattern><symbol
       id="*Model_Space-1" /><symbol
       id="*Paper_Space-3" /><symbol
       id="*Paper_Space0-0" /></defs><g
     inkscape:label="Ebene 1"
     inkscape:groupmode="layer"
     id="layer1"><g
       inkscape:label="0"
       id="g167"
       transform="matrix(0.26458333,0,0,0.26458333,25.397717,-282.8677)"><g
         inkscape:label="0"
         id="g294"><path
           d="m 77.422015,1434.7087 v 9.0708 H 56.634613 v -9.0708 z"
           style="fill:none;stroke:#000000;stroke-width:0.07559055;stroke-dasharray:none"
           id="path276" /><path
           d="m 379.78422,1434.7087 v 9.0708 h -20.7874 v -9.0708 z"
           style="fill:none;stroke:#000000;stroke-width:0.07559055;stroke-dasharray:none"
           id="path278" /><path
           d="m 682.14642,1434.7087 v 9.0708 h -20.7874 v -9.0708 z"
           style="fill:none;stroke:#000000;stroke-width:0.07559055;stroke-dasharray:none"
           id="path280" /><path
           d="m 984.50863,1434.7087 v 9.0708 h -20.7874 v -9.0708 z"
           style="fill:none;stroke:#000000;stroke-width:0.07559055;stroke-dasharray:none"
           id="path282" /><path
           d="m 77.422015,1133.8583 v 9.0708 H 56.634613 v -9.0708 z"
           style="fill:none;stroke:#000000;stroke-width:0.07559055;stroke-dasharray:none"
           id="path284" /><path
           d="m 379.78422,1133.8583 v 9.0708 h -20.7874 v -9.0708 z"
           style="fill:none;stroke:#000000;stroke-width:0.07559055;stroke-dasharray:none"
           id="path286" /><path
           d="m 682.14642,1133.8583 v 9.0708 h -20.7874 v -9.0708 z"
           style="fill:none;stroke:#000000;stroke-width:0.07559055;stroke-dasharray:none"
           id="path288" /><path
           d="m 963.72123,1142.9291 v -9.0708 h 20.7874 v 9.0708 z"
           style="fill:none;stroke:#000000;stroke-width:0.07559055;stroke-dasharray:none"
           id="path290" /><path
           d="m 161.89446,1455.1181 v 22.6772 h 37.03937 v -22.6772 h 38.55118 v 22.6772 h 37.03937 v -22.6772 h 38.55118 v 22.6772 h 37.03937 v -22.6772 h 38.55118 v 22.6772 h 37.03937 v -22.6772 h 38.55118 v 22.6772 h 37.03937 v -22.6772 h 38.55118 v 22.6772 h 37.03937 v -22.6772 h 38.55118 v 22.6772 h 37.03937 v -22.6772 h 38.55118 v 22.6772 h 37.03937 v -22.6772 h 38.55119 v 22.6772 h 37.03936 v -22.6772 h 38.55119 v 22.6772 h 37.03937 v -22.6772 h 38.55118 v 22.6772 h 37.03937 v -22.6772 h 38.55118 v 22.6772 h 37.03938 v -22.6772 h 37.962 v -332.5984 h -37.962 v -22.6772 h -37.03938 v 22.6772 h -38.55118 v -22.6772 h -37.03937 v 22.6772 h -38.55118 v -22.6772 h -37.03937 v 22.6772 h -38.55119 v -22.6772 h -37.03936 v 22.6772 h -38.55119 v -22.6772 h -37.03937 v 22.6772 h -38.55118 v -22.6772 h -37.03937 v 22.6772 h -38.55118 v -22.6772 h -37.03937 v 22.6772 h -38.55118 v -22.6772 h -37.03937 v 22.6772 h -38.55118 v -22.6772 h -37.03937 v 22.6772 h -38.55118 v -22.6772 h -37.03937 v 22.6772 h -38.55118 v -22.6772 h -37.03937 v 22.6772 h -38.55118 v -22.6772 h -37.03937 v 22.6772 h -38.55118 v -22.6772 H 86.303904 v 22.6772 H 47.752723 v -22.6772 h -37.03937 v 22.6772 h -38.551181 v -22.6772 h -37.417323 v 377.9528 h 37.417323 v -22.6772 h 38.551181 v 22.6772 h 37.03937 v -22.6772 h 38.551181 v 22.6772 h 37.039376 v -22.6772 z"
           style="fill:none;stroke:#000000;stroke-width:0.07559055;stroke-dasharray:none"
           id="path292" /></g></g></g></svg>
