<?xml version="1.0" encoding="UTF-8" standalone="no"?>
<!-- Created with Inkscape (http://www.inkscape.org/) -->

<svg
   width="590mm"
   height="400mm"
   viewBox="0 0 590 400"
   version="1.1"
   id="svg5"
   xml:space="preserve"
   inkscape:version="1.2 (dc2aedaf03, 2022-05-15)"
   sodipodi:docname="Sidewall_Telescope.svg"
   xmlns:inkscape="http://www.inkscape.org/namespaces/inkscape"
   xmlns:sodipodi="http://sodipodi.sourceforge.net/DTD/sodipodi-0.dtd"
   xmlns="http://www.w3.org/2000/svg"
   xmlns:svg="http://www.w3.org/2000/svg"><sodipodi:namedview
     id="namedview7"
     pagecolor="#ffffff"
     bordercolor="#666666"
     borderopacity="1.0"
     inkscape:showpageshadow="2"
     inkscape:pageopacity="0.0"
     inkscape:pagecheckerboard="0"
     inkscape:deskcolor="#d1d1d1"
     inkscape:document-units="mm"
     showgrid="false"
     inkscape:zoom="0.89085298"
     inkscape:cx="1045.6271"
     inkscape:cy="524.77795"
     inkscape:window-width="2560"
     inkscape:window-height="1372"
     inkscape:window-x="1912"
     inkscape:window-y="-8"
     inkscape:window-maximized="1"
     inkscape:current-layer="g285" /><defs
     id="defs2"><marker
       id="DistanceX"
       orient="auto"
       refX="0.0"
       refY="0.0"
       style="overflow:visible"><path
         d="M 3,-3 L -3,3 M 0,-5 L  0,5"
         style="stroke:#000000; stroke-width:0.5"
         id="path134" /></marker><pattern
       id="Hatch"
       patternUnits="userSpaceOnUse"
       width="8"
       height="8"
       x="0"
       y="0"><path
         d="M8 4 l-4,4"
         stroke="#000000"
         stroke-width="0.25"
         linecap="square"
         id="path137" /><path
         d="M6 2 l-4,4"
         stroke="#000000"
         stroke-width="0.25"
         linecap="square"
         id="path139" /><path
         d="M4 0 l-4,4"
         stroke="#000000"
         stroke-width="0.25"
         linecap="square"
         id="path141" /></pattern><symbol
       id="*Model_Space" /><symbol
       id="*Paper_Space" /><symbol
       id="*Paper_Space0" /><marker
       id="DistanceX-3"
       orient="auto"
       refX="0.0"
       refY="0.0"
       style="overflow:visible"><path
         d="M 3,-3 L -3,3 M 0,-5 L  0,5"
         style="stroke:#000000; stroke-width:0.5"
         id="path212" /></marker><pattern
       id="Hatch-3"
       patternUnits="userSpaceOnUse"
       width="8"
       height="8"
       x="0"
       y="0"><path
         d="M8 4 l-4,4"
         stroke="#000000"
         stroke-width="0.25"
         linecap="square"
         id="path215" /><path
         d="M6 2 l-4,4"
         stroke="#000000"
         stroke-width="0.25"
         linecap="square"
         id="path217" /><path
         d="M4 0 l-4,4"
         stroke="#000000"
         stroke-width="0.25"
         linecap="square"
         id="path219" /></pattern><symbol
       id="*Model_Space-2" /><symbol
       id="*Paper_Space-3" /><symbol
       id="*Paper_Space0-6" /><marker
       id="DistanceX-4"
       orient="auto"
       refX="0.0"
       refY="0.0"
       style="overflow:visible"><path
         d="M 3,-3 L -3,3 M 0,-5 L  0,5"
         style="stroke:#000000; stroke-width:0.5"
         id="path230" /></marker><pattern
       id="Hatch-4"
       patternUnits="userSpaceOnUse"
       width="8"
       height="8"
       x="0"
       y="0"><path
         d="M8 4 l-4,4"
         stroke="#000000"
         stroke-width="0.25"
         linecap="square"
         id="path233" /><path
         d="M6 2 l-4,4"
         stroke="#000000"
         stroke-width="0.25"
         linecap="square"
         id="path235" /><path
         d="M4 0 l-4,4"
         stroke="#000000"
         stroke-width="0.25"
         linecap="square"
         id="path237" /></pattern><symbol
       id="*Model_Space-8" /><symbol
       id="*Paper_Space-2" /><symbol
       id="*Paper_Space0-9" /></defs><g
     inkscape:label="Ebene 1"
     inkscape:groupmode="layer"
     id="layer1"><g
       inkscape:label="0"
       id="g261"
       transform="matrix(0.26458333,0,0,0.26458333,458.13229,-282.8677)"><g
         inkscape:label="0"
         id="g285"
         transform="translate(-1.6709132e-5)"><path
           d="m -189.78577,1417.0695 h -15.11811 v -226.7716 h 15.11811 z"
           style="fill:none;stroke:#000000;stroke-width:0.07559055;stroke-dasharray:none"
           id="path245" /><path
           d="m -747.40157,1443.7795 v -9.0708 h 20.7874 v 9.0708 z"
           style="fill:none;stroke:#000000;stroke-width:0.07559055;stroke-dasharray:none"
           id="path247" /><path
           d="m 29.291339,1434.7087 v 9.0708 H 8.503937 v -9.0708 z"
           style="fill:none;stroke:#000000;stroke-width:0.07559055;stroke-dasharray:none"
           id="path249" /><path
           d="m -1482.5197,1443.7795 h -20.7874 v -9.0708 h 20.7874 z"
           style="fill:none;stroke:#000000;stroke-width:0.07559055;stroke-dasharray:none"
           id="path251" /><path
           d="m -369.44882,1443.7795 v -9.0708 h 20.7874 v 9.0708 z"
           style="fill:none;stroke:#000000;stroke-width:0.07559055;stroke-dasharray:none"
           id="path253" /><path
           d="m -1104.5669,1443.7795 h -20.7874 v -9.0708 h 20.7874 z"
           style="fill:none;stroke:#000000;stroke-width:0.07559055;stroke-dasharray:none"
           id="path255" /><path
           d="m -726.61417,1133.8583 v 9.0708 h -20.7874 v -9.0708 z"
           style="fill:none;stroke:#000000;stroke-width:0.07559055;stroke-dasharray:none"
           id="path257" /><path
           d="m -1104.5669,1133.8583 v 9.0708 h -20.7874 v -9.0708 z"
           style="fill:none;stroke:#000000;stroke-width:0.07559055;stroke-dasharray:none"
           id="path259" /><path
           d="m -348.66142,1133.8583 v 9.0708 h -20.7874 v -9.0708 z"
           style="fill:none;stroke:#000000;stroke-width:0.07559055;stroke-dasharray:none"
           id="path261" /><path
           d="m -1482.5197,1133.8583 v 9.0708 h -20.7874 v -9.0708 z"
           style="fill:none;stroke:#000000;stroke-width:0.07559055;stroke-dasharray:none"
           id="path263" /><path
           d="m 8.503937,1142.9291 v -9.0708 h 20.787402 v 9.0708 z"
           style="fill:none;stroke:#000000;stroke-width:0.07559055;stroke-dasharray:none"
           id="path265" /><path
           d="m -0.377953,1477.7953 v -22.6772 h 38.551181 v 22.6772 H 151.1811 V 1122.5197 H 75.590551 v -22.6772 H 38.173228 v 22.6772 H -0.377953 v -22.6772 h -37.03937 v 22.6772 h -38.551181 v -22.6772 h -37.039366 v 22.6772 h -38.55118 v -22.6772 h -37.03937 v 22.6772 h -38.55119 v -22.6772 h -37.03937 v 22.6772 h -38.55118 v -22.6772 h -37.03937 v 22.6772 h -38.55118 v -22.6772 h -37.03937 v 22.6772 h -38.55118 v -22.6772 h -37.03937 v 22.6772 h -38.55118 v -22.6772 h -37.03937 v 22.6772 h -38.55118 v -22.6772 h -37.03937 v 22.6772 h -38.55118 v -22.6772 h -37.03937 v 22.6772 h -38.55118 v -22.6772 h -37.03938 v 22.6772 h -38.55118 v -22.6772 h -37.03937 v 22.6772 h -38.55118 v -22.6772 h -37.03937 v 22.6772 h -38.55118 v -22.6772 h -37.03938 v 22.6772 h -38.5512 v -22.6772 h -37.0393 v 22.6772 h -38.5512 v -22.6772 h -37.0394 v 22.6772 h -38.5512 v -22.6772 h -37.0393 v 22.6772 h -38.5512 v -22.6772 h -37.0394 v 22.6772 h -38.5512 v -22.6772 h -37.0393 v 22.6772 h -38.5512 v -22.6772 h -37.0394 v 22.6772 h -38.5512 v -22.6772 h -188.5984 v 377.9528 h 188.5984 v -22.6772 h 38.5512 v 22.6772 h 37.0394 v -22.6772 h 38.5512 v 22.6772 h 37.0393 v -22.6772 h 38.5512 v 22.6772 h 37.0394 v -22.6772 h 38.5512 v 22.6772 h 37.0393 v -22.6772 h 38.5512 v 22.6772 h 37.0394 v -22.6772 h 38.5512 v 22.6772 h 37.0393 v -22.6772 h 38.5512 v 22.6772 h 37.03938 v -22.6772 h 38.55118 v 22.6772 h 37.03937 v -22.6772 h 38.55118 v 22.6772 h 37.03937 v -22.6772 h 38.55118 v 22.6772 h 37.03938 v -22.6772 h 38.55118 v 22.6772 h 37.03937 v -22.6772 h 38.55118 v 22.6772 h 37.03937 v -22.6772 h 38.55118 v 22.6772 h 37.03937 v -22.6772 h 38.55118 v 22.6772 h 37.03937 v -22.6772 h 38.55118 v 22.6772 h 37.03937 v -22.6772 h 38.55118 v 22.6772 h 37.03937 v -22.6772 h 38.55118 v 22.6772 h 37.03937 v -22.6772 h 38.55119 v 22.6772 h 37.03937 v -22.6772 h 38.55118 v 22.6772 h 37.039366 v -22.6772 h 38.551181 v 22.6772 z"
           style="fill:none;stroke:#000000;stroke-width:0.07559055;stroke-dasharray:none"
           id="path267" /><path
           d="m -990.23622,1139.5276 a 5.6692915,5.6692915 0 0 0 -11.33858,0 5.6692915,5.6692915 0 0 0 11.33858,0 z"
           style="fill:none;stroke:#000000;stroke-width:0.07559055;stroke-dasharray:none"
           id="path269" /><path
           d="m -1314.1417,1139.5276 a 5.6693,5.6693 0 0 0 -11.3386,0 5.6693,5.6693 0 0 0 11.3386,0 z"
           style="fill:none;stroke:#000000;stroke-width:0.07559055;stroke-dasharray:none"
           id="path271" /><path
           d="m -1168.0617,1414.0738 a 5.858268,5.858268 0 0 0 -11.7165,0 5.858268,5.858268 0 0 0 11.7165,0 z"
           style="fill:none;stroke:#000000;stroke-width:0.07559055;stroke-dasharray:none"
           id="path273" /><path
           d="m -1675.8425,1298.2677 a 6.04725,6.04725 0 0 0 -12.0945,0 6.04725,6.04725 0 0 0 12.0945,0 z"
           style="fill:none;stroke:#000000;stroke-width:0.07559055;stroke-dasharray:none"
           id="path275" /><path
           d="m -1675.8425,1241.5748 a 6.04725,6.04725 0 0 0 -12.0945,0 6.04725,6.04725 0 0 0 12.0945,0 z"
           style="fill:none;stroke:#000000;stroke-width:0.07559055;stroke-dasharray:none"
           id="path277" /><path
           d="m -1675.8425,1354.9606 a 6.04725,6.04725 0 0 0 -12.0945,0 6.04725,6.04725 0 0 0 12.0945,0 z"
           style="fill:none;stroke:#000000;stroke-width:0.07559055;stroke-dasharray:none"
           id="path279" /><path
           d="m -1675.8425,1184.8819 a 6.04725,6.04725 0 0 0 -12.0945,0 6.04725,6.04725 0 0 0 12.0945,0 z"
           style="fill:none;stroke:#000000;stroke-width:0.07559055;stroke-dasharray:none"
           id="path281" /><path
           d="m -1675.8425,1411.6535 a 6.04725,6.04725 0 0 0 -12.0945,0 6.04725,6.04725 0 0 0 12.0945,0 z"
           style="fill:none;stroke:#000000;stroke-width:0.07559055;stroke-dasharray:none"
           id="path283" /></g></g></g></svg>
