<?xml version="1.0" encoding="UTF-8" standalone="no"?>
<!-- Created with Inkscape (http://www.inkscape.org/) -->

<svg
   width="590mm"
   height="400mm"
   viewBox="0 0 590 400"
   version="1.1"
   id="svg5"
   xml:space="preserve"
   inkscape:version="1.2 (dc2aedaf03, 2022-05-15)"
   sodipodi:docname="Sidewall_Back3.svg"
   xmlns:inkscape="http://www.inkscape.org/namespaces/inkscape"
   xmlns:sodipodi="http://sodipodi.sourceforge.net/DTD/sodipodi-0.dtd"
   xmlns="http://www.w3.org/2000/svg"
   xmlns:svg="http://www.w3.org/2000/svg"><sodipodi:namedview
     id="namedview7"
     pagecolor="#ffffff"
     bordercolor="#666666"
     borderopacity="1.0"
     inkscape:showpageshadow="2"
     inkscape:pageopacity="0.0"
     inkscape:pagecheckerboard="0"
     inkscape:deskcolor="#d1d1d1"
     inkscape:document-units="mm"
     showgrid="false"
     inkscape:zoom="0.89085297"
     inkscape:cx="921.0274"
     inkscape:cy="419.2611"
     inkscape:window-width="2560"
     inkscape:window-height="1372"
     inkscape:window-x="1912"
     inkscape:window-y="-8"
     inkscape:window-maximized="1"
     inkscape:current-layer="g2058" /><defs
     id="defs2"><marker
       id="DistanceX"
       orient="auto"
       refX="0.0"
       refY="0.0"
       style="overflow:visible"><path
         d="M 3,-3 L -3,3 M 0,-5 L  0,5"
         style="stroke:#000000; stroke-width:0.5"
         id="path134" /></marker><pattern
       id="Hatch"
       patternUnits="userSpaceOnUse"
       width="8"
       height="8"
       x="0"
       y="0"><path
         d="M8 4 l-4,4"
         stroke="#000000"
         stroke-width="0.25"
         linecap="square"
         id="path137" /><path
         d="M6 2 l-4,4"
         stroke="#000000"
         stroke-width="0.25"
         linecap="square"
         id="path139" /><path
         d="M4 0 l-4,4"
         stroke="#000000"
         stroke-width="0.25"
         linecap="square"
         id="path141" /></pattern><symbol
       id="*Model_Space" /><symbol
       id="*Paper_Space" /><symbol
       id="*Paper_Space0" /><marker
       id="DistanceX-9"
       orient="auto"
       refX="0.0"
       refY="0.0"
       style="overflow:visible"><path
         d="M 3,-3 L -3,3 M 0,-5 L  0,5"
         style="stroke:#000000; stroke-width:0.5"
         id="path2033" /></marker><pattern
       id="Hatch-9"
       patternUnits="userSpaceOnUse"
       width="8"
       height="8"
       x="0"
       y="0"><path
         d="M8 4 l-4,4"
         stroke="#000000"
         stroke-width="0.25"
         linecap="square"
         id="path2036" /><path
         d="M6 2 l-4,4"
         stroke="#000000"
         stroke-width="0.25"
         linecap="square"
         id="path2038" /><path
         d="M4 0 l-4,4"
         stroke="#000000"
         stroke-width="0.25"
         linecap="square"
         id="path2040" /></pattern><symbol
       id="*Model_Space-3" /><symbol
       id="*Paper_Space-9" /><symbol
       id="*Paper_Space0-4" /></defs><g
     inkscape:label="Ebene 1"
     inkscape:groupmode="layer"
     id="layer1"><g
       inkscape:label="0"
       id="g159"
       transform="matrix(0.26458333,0,0,0.26458333,8.1322917,-282.8677)"><g
         inkscape:label="0"
         id="g2058"
         transform="translate(18.897638)"><path
           d="m 123.77953,1434.7087 v 9.0708 h -20.7874 v -9.0708 z"
           style="fill:none;stroke:#000000;stroke-width:0.07559055;stroke-dasharray:none"
           id="path2048" /><path
           d="m 426.14173,1434.7087 v 9.0708 h -20.7874 v -9.0708 z"
           style="fill:none;stroke:#000000;stroke-width:0.07559055;stroke-dasharray:none"
           id="path2050" /><path
           d="m 123.77953,1133.8583 v 9.0708 h -20.7874 v -9.0708 z"
           style="fill:none;stroke:#000000;stroke-width:0.07559055;stroke-dasharray:none"
           id="path2052" /><path
           d="m 405.35433,1142.9291 v -9.0708 h 20.7874 v 9.0708 z"
           style="fill:none;stroke:#000000;stroke-width:0.07559055;stroke-dasharray:none"
           id="path2054" /><path
           d="m 57.070866,1455.1181 v 22.6772 h 37.03937 v -22.6772 h 38.551184 v 22.6772 h 37.03937 v -22.6772 h 38.55118 v 22.6772 h 37.03937 v -22.6772 h 38.55118 v 22.6772 h 37.03937 v -22.6772 h 38.55118 v 22.6772 h 37.03937 v -22.6772 h 38.55118 v 22.6772 h 89.89063 v -355.2756 h -52.85126 v -22.6772 h -37.03937 v 22.6772 h -38.55118 v -22.6772 h -37.03937 v 22.6772 h -38.55118 v -22.6772 h -37.03937 v 22.6772 h -38.55118 v -22.6772 h -37.03937 v 22.6772 h -38.55118 v -22.6772 h -37.03937 v 22.6772 H 94.110236 v -22.6772 h -37.03937 v 22.6772 H 18.519685 v -22.6772 h -37.03937 v 22.6772 h -0.377953 v 355.2756 h 37.417323 v -22.6772 z"
           style="fill:none;stroke:#000000;stroke-width:0.07559055;stroke-dasharray:none"
           id="path2056" /></g></g></g></svg>
