<?xml version="1.0" encoding="UTF-8" standalone="no"?>
<!-- Created with Inkscape (http://www.inkscape.org/) -->

<svg
   width="590mm"
   height="400mm"
   viewBox="0 0 590 400"
   version="1.1"
   id="svg7689"
   xml:space="preserve"
   inkscape:version="1.2 (dc2aedaf03, 2022-05-15)"
   sodipodi:docname="Sidewall_TelescopeDown+LaserBack.svg"
   xmlns:inkscape="http://www.inkscape.org/namespaces/inkscape"
   xmlns:sodipodi="http://sodipodi.sourceforge.net/DTD/sodipodi-0.dtd"
   xmlns="http://www.w3.org/2000/svg"
   xmlns:svg="http://www.w3.org/2000/svg"><sodipodi:namedview
     id="namedview7691"
     pagecolor="#ffffff"
     bordercolor="#666666"
     borderopacity="1.0"
     inkscape:showpageshadow="2"
     inkscape:pageopacity="0.0"
     inkscape:pagecheckerboard="0"
     inkscape:deskcolor="#d1d1d1"
     inkscape:document-units="mm"
     showgrid="false"
     showguides="false"
     inkscape:zoom="0.89085297"
     inkscape:cx="1088.8441"
     inkscape:cy="388.95307"
     inkscape:window-width="2560"
     inkscape:window-height="1372"
     inkscape:window-x="1912"
     inkscape:window-y="-8"
     inkscape:window-maximized="1"
     inkscape:current-layer="g8381" /><defs
     id="defs7686"><marker
       id="DistanceX"
       orient="auto"
       refX="0.0"
       refY="0.0"
       style="overflow:visible"><path
         d="M 3,-3 L -3,3 M 0,-5 L  0,5"
         style="stroke:#000000; stroke-width:0.5"
         id="path8187" /></marker><pattern
       id="Hatch"
       patternUnits="userSpaceOnUse"
       width="8"
       height="8"
       x="0"
       y="0"><path
         d="M8 4 l-4,4"
         stroke="#000000"
         stroke-width="0.25"
         linecap="square"
         id="path8190" /><path
         d="M6 2 l-4,4"
         stroke="#000000"
         stroke-width="0.25"
         linecap="square"
         id="path8192" /><path
         d="M4 0 l-4,4"
         stroke="#000000"
         stroke-width="0.25"
         linecap="square"
         id="path8194" /></pattern><symbol
       id="*Model_Space" /><symbol
       id="*Paper_Space" /><symbol
       id="*Paper_Space0" /><marker
       id="DistanceX-5"
       orient="auto"
       refX="0.0"
       refY="0.0"
       style="overflow:visible"><path
         d="M 3,-3 L -3,3 M 0,-5 L  0,5"
         style="stroke:#000000; stroke-width:0.5"
         id="path8271" /></marker><pattern
       id="Hatch-5"
       patternUnits="userSpaceOnUse"
       width="8"
       height="8"
       x="0"
       y="0"><path
         d="M8 4 l-4,4"
         stroke="#000000"
         stroke-width="0.25"
         linecap="square"
         id="path8274" /><path
         d="M6 2 l-4,4"
         stroke="#000000"
         stroke-width="0.25"
         linecap="square"
         id="path8276" /><path
         d="M4 0 l-4,4"
         stroke="#000000"
         stroke-width="0.25"
         linecap="square"
         id="path8278" /></pattern><symbol
       id="*Model_Space-6" /><symbol
       id="*Paper_Space-6" /><symbol
       id="*Paper_Space0-4" /><marker
       id="DistanceX-4"
       orient="auto"
       refX="0.0"
       refY="0.0"
       style="overflow:visible"><path
         d="M 3,-3 L -3,3 M 0,-5 L  0,5"
         style="stroke:#000000; stroke-width:0.5"
         id="path8346" /></marker><pattern
       id="Hatch-3"
       patternUnits="userSpaceOnUse"
       width="8"
       height="8"
       x="0"
       y="0"><path
         d="M8 4 l-4,4"
         stroke="#000000"
         stroke-width="0.25"
         linecap="square"
         id="path8349" /><path
         d="M6 2 l-4,4"
         stroke="#000000"
         stroke-width="0.25"
         linecap="square"
         id="path8351" /><path
         d="M4 0 l-4,4"
         stroke="#000000"
         stroke-width="0.25"
         linecap="square"
         id="path8353" /></pattern><symbol
       id="*Model_Space-8" /><symbol
       id="*Paper_Space-0" /><symbol
       id="*Paper_Space0-5" /></defs><g
     inkscape:label="Ebene 1"
     inkscape:groupmode="layer"
     id="layer1"><g
       inkscape:label="0"
       id="g8232"
       transform="matrix(0.26458333,0,0,0.26458333,258.13229,-282.8677)"><path
         d="m -642.14173,1117.1746 a 5.669291,5.669291 0 1 1 -7.55906,5.3451 h -30.99212 v -22.6772 h -37.03937 v 22.6772 h -38.55118 v -22.6772 h -37.03938 v 22.6772 h -38.55118 v -22.6772 h -37.03937 v 22.6772 h -38.55118 v -22.6772 h -37.41732 v 377.9528 h 37.41732 v -22.6772 h 38.55118 v 22.6772 h 37.03937 v -22.6772 h 38.55118 v 22.6772 h 37.03938 v -22.6772 h 38.55118 v 22.6772 h 37.03937 v -22.6772 h 38.55118 v 22.6772 h 37.03937 v -22.6772 h 38.55118 v 22.6772 h 37.03937 v -22.6772 h 38.55118 v 22.6772 h 37.03937 v -22.6772 h 38.55118 v 22.6772 h 37.03937 v -22.6772 h 38.55118 v 22.6772 h 37.03937 v -22.6772 h 38.55118 v 22.6772 h 37.03937 v -22.6772 h 38.55119 v 22.6772 h 37.03937 v -22.6772 h 38.55118 v 22.6772 h 37.039366 v -22.6772 h 38.551181 v 22.6772 H 0 v -22.6772 H 31.053664 V 1122.5197 H 0 v -22.6772 h -37.417323 v 22.6772 h -38.551181 v -22.6772 h -37.039366 v 22.6772 h -38.55118 v -22.6772 h -37.03937 v 22.6772 h -38.55119 v -22.6772 h -37.03937 v 22.6772 h -38.55118 v -22.6772 h -37.03937 v 17.0079 a 5.669291,5.669291 0 1 1 -5.66929,5.6693 h -32.88189 v -22.6772 h -37.03937 v 22.6772 h -38.55118 v -22.6772 h -37.03937 v 22.6772 h -38.55118 v -22.6772 h -37.03937 v 22.6772 h -38.55118 v -22.6772 h -37.03937 z"
         style="fill:none;stroke:#000000;stroke-width:0.07559055;stroke-dasharray:none"
         id="path8202" /><path
         d="m -802.20472,1434.7087 v 9.0708 h -20.78741 v -9.0708 z"
         style="fill:none;stroke:#000000;stroke-width:0.07559055;stroke-dasharray:none"
         id="path8204" /><path
         d="m -424.25197,1434.7087 v 9.0708 h -20.7874 v -9.0708 z"
         style="fill:none;stroke:#000000;stroke-width:0.07559055;stroke-dasharray:none"
         id="path8206" /><path
         d="m -46.299213,1434.7087 v 9.0708 h -20.787401 v -9.0708 z"
         style="fill:none;stroke:#000000;stroke-width:0.07559055;stroke-dasharray:none"
         id="path8208" /><path
         d="m -802.20472,1133.8583 v 9.0708 h -20.78741 v -9.0708 z"
         style="fill:none;stroke:#000000;stroke-width:0.07559055;stroke-dasharray:none"
         id="path8210" /><path
         d="m -424.25197,1133.8583 v 9.0708 h -20.7874 v -9.0708 z"
         style="fill:none;stroke:#000000;stroke-width:0.07559055;stroke-dasharray:none"
         id="path8212" /><path
         d="m -67.086614,1142.9291 v -9.0708 h 20.787401 v 9.0708 z"
         style="fill:none;stroke:#000000;stroke-width:0.07559055;stroke-dasharray:none"
         id="path8214" /><path
         d="m -454.61563,1364.4094 a 5.6692915,5.6692915 0 0 0 -11.33858,0 5.6692915,5.6692915 0 0 0 11.33858,0 z"
         style="fill:none;stroke:#000000;stroke-width:0.07559055;stroke-dasharray:none"
         id="path8216" /><path
         d="m -756.97783,1364.4094 a 5.6692915,5.6692915 0 0 0 -11.33858,0 5.6692915,5.6692915 0 0 0 11.33858,0 z"
         style="fill:none;stroke:#000000;stroke-width:0.07559055;stroke-dasharray:none"
         id="path8218" /><path
         d="m -530.20618,1364.4094 a 5.6692915,5.6692915 0 0 0 -11.33858,0 5.6692915,5.6692915 0 0 0 11.33858,0 z"
         style="fill:none;stroke:#000000;stroke-width:0.07559055;stroke-dasharray:none"
         id="path8220" /><path
         d="m -227.84397,1364.4094 a 5.669295,5.669295 0 0 0 -11.33859,0 5.669295,5.669295 0 0 0 11.33859,0 z"
         style="fill:none;stroke:#000000;stroke-width:0.07559055;stroke-dasharray:none"
         id="path8222" /><path
         d="m -454.61563,1281.2598 a 5.6692915,5.6692915 0 0 0 -11.33858,0 5.6692915,5.6692915 0 0 0 11.33858,0 z"
         style="fill:none;stroke:#000000;stroke-width:0.07559055;stroke-dasharray:none"
         id="path8224" /><path
         d="m -756.97783,1281.2598 a 5.6692915,5.6692915 0 0 0 -11.33858,0 5.6692915,5.6692915 0 0 0 11.33858,0 z"
         style="fill:none;stroke:#000000;stroke-width:0.07559055;stroke-dasharray:none"
         id="path8226" /><path
         d="m -530.20618,1281.2598 a 5.6692915,5.6692915 0 0 0 -11.33858,0 5.6692915,5.6692915 0 0 0 11.33858,0 z"
         style="fill:none;stroke:#000000;stroke-width:0.07559055;stroke-dasharray:none"
         id="path8228" /><path
         d="m -227.84397,1281.2598 a 5.669295,5.669295 0 0 0 -11.33859,0 5.669295,5.669295 0 0 0 11.33859,0 z"
         style="fill:none;stroke:#000000;stroke-width:0.07559055;stroke-dasharray:none"
         id="path8230" /></g><g
       inkscape:label="0"
       id="g8381"
       transform="matrix(0.26458333,0,0,0.26458333,355.13229,-282.8677)"><path
         d="m -218.26772,1142.9291 v -9.0708 h 20.78741 v 9.0708 z"
         style="fill:none;stroke:#000000;stroke-width:0.07559055;stroke-dasharray:none"
         id="path8361" /><path
         d="m -67.086614,1142.9291 v -9.0708 h 20.787401 v 9.0708 z"
         style="fill:none;stroke:#000000;stroke-width:0.07559055;stroke-dasharray:none"
         id="path8363" /><path
         d="m -197.48031,1434.7087 v 9.0708 h -20.78741 v -9.0708 z"
         style="fill:none;stroke:#000000;stroke-width:0.07559055;stroke-dasharray:none"
         id="path8365" /><path
         d="m 84.094488,1443.7795 v -9.0708 h 20.787402 v 9.0708 z"
         style="fill:none;stroke:#000000;stroke-width:0.07559055;stroke-dasharray:none"
         id="path8367" /><path
         d="m -283.46457,1447.5591 h 0.75591 v 7.559 h 18.51968 v 22.6772 h 37.03937 v -22.6772 h 38.55119 v 22.6772 h 37.03937 v -22.6772 h 38.55118 v 22.6772 h 37.039366 v -22.6772 h 38.551181 v 22.6772 h 37.03937 v -22.6772 h 38.551181 v 22.6772 h 37.03937 v -22.6772 h 38.551182 v 22.6772 H 151.1811 V 1099.8425 H -37.417323 v 22.6772 h -38.551181 v -22.6772 h -37.039366 v 22.6772 h -38.55118 v -22.6772 h -37.03937 v 22.6772 h -38.55119 v -22.6772 h -37.41732 v 22.6772 h -18.89764 z"
         style="fill:none;stroke:#000000;stroke-width:0.07559055;stroke-dasharray:none"
         id="path8369" /><path
         d="m 138.33071,1298.2677 a 6.047245,6.047245 0 0 0 -12.09449,0 6.047245,6.047245 0 0 0 12.09449,0 z"
         style="fill:none;stroke:#000000;stroke-width:0.07559055;stroke-dasharray:none"
         id="path8371" /><path
         d="m 138.33071,1241.5748 a 6.047245,6.047245 0 0 0 -12.09449,0 6.047245,6.047245 0 0 0 12.09449,0 z"
         style="fill:none;stroke:#000000;stroke-width:0.07559055;stroke-dasharray:none"
         id="path8373" /><path
         d="m 138.33071,1354.9606 a 6.047245,6.047245 0 0 0 -12.09449,0 6.047245,6.047245 0 0 0 12.09449,0 z"
         style="fill:none;stroke:#000000;stroke-width:0.07559055;stroke-dasharray:none"
         id="path8375" /><path
         d="m 138.33071,1184.8819 a 6.047245,6.047245 0 0 0 -12.09449,0 6.047245,6.047245 0 0 0 12.09449,0 z"
         style="fill:none;stroke:#000000;stroke-width:0.07559055;stroke-dasharray:none"
         id="path8377" /><path
         d="m 138.33071,1411.6535 a 6.047245,6.047245 0 0 0 -12.09449,0 6.047245,6.047245 0 0 0 12.09449,0 z"
         style="fill:none;stroke:#000000;stroke-width:0.07559055;stroke-dasharray:none"
         id="path8379" /></g></g></svg>
